<svg width="145" height="45" viewBox="0 0 145 45" fill="none" xmlns="http://www.w3.org/2000/svg">
<path fill-rule="evenodd" clip-rule="evenodd" d="M74.3745 43.9274C74.1814 45.3577 71.1011 45.3577 70.908 43.9264C70.0968 45.4568 67.7337 45.0226 67.3976 43.484C66.426 44.899 64.1763 44.239 63.9617 42.7494C63.0208 43.7752 61.1542 43.3644 60.7312 42.0363C53.8084 39.1889 48.7399 34.0377 46.7579 27.8872C46.3502 27.7125 45.9824 27.4489 45.6902 27.0689C43.5488 27.5726 41.1561 28.5809 40.2744 26.1872C38.3854 26.6919 34.4213 28.0109 33.2219 24.8028C30.4511 25.1808 26.4206 25.4322 25.9169 22.5358C23.5242 22.5358 19.3681 22.1567 19.3681 19.387C16.9754 19.387 12.8192 17.7503 13.3229 15.8602C11.1815 15.6089 8.28503 13.3418 8.28503 11.8308C6.14465 11.2014 3.75091 9.5647 4.25562 7.42329C2.9959 6.66828 0.854492 5.78658 0.854492 4.52687C0.854492 3.26818 1.85979 2.2598 2.99384 2.2598C4.12788 2.2598 8.40973 2.5193 9.92078 2.5193C11.4318 2.5193 29.694 2.26695 33.9758 2.5193C38.2586 2.77063 43.6735 2.89016 46.3186 2.63781C48.2679 2.45289 54.9067 2.07283 58.8912 3.13741C67.3342 -1.04631 77.9504 -1.04529 86.3914 3.13741C90.3769 2.07181 97.0146 2.45187 98.963 2.63985C101.608 2.89118 107.024 2.77267 111.306 2.52134C115.587 2.26899 133.85 2.52134 135.36 2.52134C136.871 2.52134 141.153 2.26184 142.287 2.26184C143.421 2.26184 144.428 3.27022 144.428 4.52891C144.428 5.7876 142.287 6.6693 141.028 7.42533C141.533 9.56572 139.139 11.2035 136.999 11.8328C136.999 13.3438 134.101 15.6109 131.96 15.8622C132.463 17.7513 128.308 19.389 125.914 19.389C125.914 22.1598 121.759 22.5378 119.367 22.5378C118.862 25.4342 114.832 25.1829 112.062 24.8049C110.862 28.0119 106.899 26.6929 105.009 26.1892C104.127 28.582 101.735 27.5746 99.5933 27.0709C99.3142 27.4315 98.9463 27.7134 98.5256 27.8893C96.5436 34.0387 91.4762 39.1899 84.5524 42.0373C84.1294 43.3655 82.2628 43.7762 81.3218 42.7504C81.1073 44.24 78.8576 44.901 77.886 43.485C77.5488 45.0236 75.1867 45.4578 74.3745 43.9274ZM50.8538 27.5746C50.234 27.871 49.5688 28.061 48.886 28.1365C50.8149 33.2132 55.1918 37.5246 61.1041 40.1002L64.1456 34.9449C60.3164 33.5462 57.2064 31.2311 55.3368 28.3868C53.9351 28.915 51.5945 29.2675 50.8538 27.5746ZM60.6638 41.4386C60.684 41.1331 60.757 40.8335 60.8793 40.5528C54.8004 37.8996 50.3061 33.4308 48.3599 28.1723C48.0196 28.1784 47.6795 28.1508 47.3515 28.0793C49.3386 33.8599 54.1363 38.6822 60.6638 41.4386ZM64.0792 41.5929C64.1129 41.4846 66.3851 35.7142 66.3729 35.6335C65.7783 35.4803 65.1969 35.3086 64.6299 35.1165L61.5373 40.3577C60.2388 42.6053 63.1087 43.9825 64.0762 41.6021C64.0774 41.5991 64.0784 41.596 64.0792 41.5929ZM67.3495 42.3336C67.3495 42.3336 68.8054 36.1454 68.7993 36.1229C68.1935 36.032 67.5978 35.9196 67.0134 35.7868L64.5553 41.7594C63.88 43.9887 66.7509 44.7151 67.3495 42.3336ZM70.72 42.7096C70.7221 42.6585 71.1532 36.4202 71.1318 36.365C70.5239 36.3303 69.9252 36.2731 69.3347 36.1985C69.3295 36.2118 67.9247 42.2774 67.9247 42.2753C67.3608 44.8275 70.5065 45.2719 70.72 42.7096ZM71.2676 42.6707C71.1175 45.2157 74.2866 45.1646 74.0966 42.6564C74.0905 42.6064 73.7002 36.4866 73.6716 36.4335C73.0658 36.4948 72.1963 36.4774 71.6078 36.4529C71.6027 36.4682 71.2676 42.6707 71.2676 42.6707ZM2.92645 3.76675C2.07949 4.41244 3.35857 5.86525 5.74109 6.33828C10.1455 7.21181 17.7661 7.23735 19.2312 7.23735C21.1203 7.23735 34.4305 7.04732 35.5012 6.98397C36.5719 6.92063 36.3829 6.03996 35.5012 5.7876C33.5498 5.15724 21.0814 3.77186 19.318 3.77186C17.5546 3.77186 8.4863 3.51951 4.58252 3.51951C3.81525 3.56242 3.20843 3.55118 2.92645 3.76675ZM7.21436 8.43065C6.89968 8.43065 6.20702 8.36833 6.83636 9.25003C7.46673 10.1317 9.9218 11.0768 11.7485 11.0134C21.4462 11.2024 34.2292 9.75473 35.6146 9.43903C38.3476 8.81786 37.5098 7.66542 34.9219 7.80131C33.7256 7.86465 23.4609 8.43065 22.1389 8.49399C20.8158 8.55734 9.48143 8.49399 7.21436 8.43065ZM11.6229 12.5878C9.98514 12.6501 12.6925 14.8549 15.0229 14.9172C22.0122 14.7915 35.7842 12.1332 36.9366 11.8951C38.3077 11.6121 39.0739 9.86711 35.6779 10.3841C31.7731 11.2024 13.1973 12.5878 11.6229 12.5878ZM16.345 16.4916C16.345 16.4916 14.6388 17.1455 18.6601 17.9495C19.8475 18.1745 21.0576 18.2561 22.2645 18.1927C25.1109 18.0404 37.615 14.9969 38.7634 14.6659C40.0527 14.294 40.7771 11.9094 37.189 12.8391C33.2218 13.9098 18.5497 16.2392 16.345 16.4916ZM22.2645 19.766C21.4503 20.5507 24.5949 21.4661 26.295 21.4661C30.9548 21.2137 40.7781 17.1209 41.4708 16.8063C42.5895 16.2975 42.0542 14.5494 40.2744 15.1696C36.622 16.5539 23.8389 19.4514 22.2645 19.766ZM43.1075 17.1209C41.6598 17.8136 32.8439 21.5294 29.4427 22.2854C28.9707 22.4111 28.4721 22.6195 28.512 22.8821C28.8144 24.8927 35.0731 23.1825 35.5073 23.0435C37.9144 22.2722 42.8215 20.471 44.9026 18.443C44.3989 18.1916 43.2342 17.3733 43.1075 17.1209ZM45.7526 19.2623C44.8085 19.8917 38.6367 23.1048 35.8036 23.9855C34.3232 24.479 35.8813 26.0012 38.7726 25.1768C41.9684 24.6813 46.6343 20.9001 47.3903 20.2074C47.0123 20.0184 46.1939 19.5147 45.7526 19.2623ZM48.65 20.9634C47.5088 21.744 45.3122 23.2029 43.9177 24.1336C43.3425 24.5178 41.9693 25.2769 41.999 25.8838C42.0133 26.1739 42.565 26.7246 45.0854 25.8092C46.6527 25.1676 48.5499 23.8629 50.1611 21.5304C49.8464 21.4344 49.027 21.1514 48.65 20.9634ZM51.4831 21.9074C50.8926 22.498 50.1294 23.3051 49.3826 24.0488C48.695 24.9356 47.1625 25.5742 47.6896 26.5989C48.2607 27.7084 50.0589 26.1116 50.7067 25.5006C51.6221 24.6353 52.5058 23.492 52.8378 22.3478C52.3965 22.2221 51.8928 22.0964 51.4831 21.9074ZM29.5694 3.26818C29.128 3.3305 29.1281 3.64517 29.7584 3.71158C31.2061 3.89957 38.0993 5.50971 39.925 5.82438C41.7517 6.13906 47.139 6.16664 50.8538 6.29231C52.0583 6.33317 53.0442 6.47416 53.8442 6.68973C58.9167 8.05877 55.9509 11.2729 54.6319 13.9119C53.8759 15.4863 54.9465 15.6753 55.7015 15.99C55.8272 11.5815 58.7247 9.88142 59.6687 9.18873C60.4717 8.60025 61.6047 7.78598 61.6047 6.43023C61.6047 5.38813 61.1245 4.41857 57.7766 3.73099C52.3903 2.62453 44.5542 3.64619 38.7634 3.64619C36.7476 3.64619 31.2071 3.26818 29.5694 3.26818ZM44.1271 7.09738C43.3721 7.1597 43.6867 8.54508 44.8831 8.23347C43.6234 8.92514 44.3161 9.80786 45.5125 9.61783C44.8198 10.5618 45.8905 11.1289 46.8345 10.8142C45.7015 12.3263 47.4649 12.3886 48.0942 11.8849C47.1502 13.8363 48.7236 13.774 49.6686 13.0179C49.0393 14.4656 50.3613 14.5913 51.432 13.9619C50.6137 14.906 51.5587 15.5363 52.0624 15.1583C52.6294 14.6546 54.0495 13.2478 54.5808 12.5766C57.2933 9.14275 54.6114 7.31295 50.8558 7.13416C49.498 7.06979 45.4492 7.09738 44.1271 7.09738ZM40.4327 6.42819C39.9229 6.39549 37.711 6.03587 37.7642 7.22815C37.8173 8.42146 40.2744 7.9709 40.7791 7.87691C41.7088 7.70425 42.4516 7.42023 42.4301 7.03506C42.4087 6.63967 41.4401 6.49153 40.4327 6.42819ZM40.5227 8.47254C39.9853 8.51341 38.0533 8.41839 38.3547 9.50953C38.4497 9.85281 39.1598 10.5475 41.5352 9.9703C42.5762 9.71693 43.1157 9.1591 43.1157 8.7157C43.1157 8.32849 41.716 8.38161 40.5227 8.47254ZM42.048 10.2441C41.6659 10.3074 39.451 10.4587 39.8218 11.5753C40.0813 12.3538 40.4798 12.1076 41.1551 12.1883C41.6005 12.2415 44.9005 11.3117 44.3846 10.2533C44.2313 9.93863 43.2607 10.0449 42.048 10.2441ZM43.1432 11.8267C40.9467 12.7186 40.9753 13.3224 41.0754 13.6483C41.1745 13.9752 42.1819 14.3788 44.2661 13.3602C45.3214 12.8442 45.3347 12.2578 45.0752 11.843C44.7513 11.323 43.932 11.5059 43.1432 11.8267ZM44.6808 13.3265C42.3944 14.1234 42.5252 14.8508 42.706 15.2779C42.9052 15.7499 43.6275 16.2525 45.536 15.0367C46.6884 14.3032 47.4383 13.6881 47.233 13.1998C47.047 12.7564 45.9569 12.8718 44.6808 13.3265ZM45.5758 15.617C44.9761 15.9808 44.7033 16.4732 45.0814 17.0341C45.7577 18.0394 47.7519 16.2658 48.2526 15.7233C48.6245 15.3208 48.8625 14.8978 48.652 14.5882C48.4344 14.2695 47.7581 14.294 45.5758 15.617ZM49.1864 15.7877C46.5239 17.1455 46.7793 17.8034 47.1502 18.0844C47.5599 18.395 48.5254 18.7209 50.1396 16.8553C50.8476 16.038 50.4584 15.143 49.1864 15.7877ZM50.5156 17.2119C49.9537 17.8402 48.6367 18.7873 49.6564 19.4932C50.5156 20.0878 51.0193 19.435 51.4423 19.0304C53.8881 16.6775 53.0789 15.1879 50.5156 17.2119ZM84.2122 26.1933C84.2122 24.1847 82.1432 22.1761 79.8455 21.4834C79.2315 21.3445 79.3286 20.7989 79.8067 20.5834C80.2665 20.3749 82.9483 18.5053 82.9105 16.1504C82.9105 13.8649 80.2277 10.4014 72.4119 10.4014C67.8144 10.4014 63.9832 11.4405 61.6844 13.3806C62.2198 13.7964 62.8338 14.4197 62.8338 15.1123V27.7881C62.7572 28.5503 62.374 29.1735 61.76 29.8662C63.8238 31.3313 67.5191 32.7289 72.8246 32.7115C78.4949 32.5726 84.2122 30.9032 84.2122 26.1933ZM58.5499 4.87832C58.2935 4.74959 58.5183 4.29904 58.7758 4.42777C61.2216 5.53525 61.6763 7.08308 59.5635 8.57471C59.3285 8.74022 59.0383 8.32849 59.2733 8.16298C61.193 6.8062 60.4196 5.81315 58.5499 4.87832ZM72.8002 20.0919C70.3615 20.0919 68.3845 18.5129 68.3845 16.5651C68.3845 14.6174 70.3615 13.0384 72.8002 13.0384C75.2389 13.0384 77.2158 14.6174 77.2158 16.5651C77.2158 18.5129 75.2389 20.0919 72.8002 20.0919ZM73.3692 29.8468C70.6354 29.8468 68.4193 28.18 68.4193 26.1238C68.4193 24.0677 70.6354 22.4009 73.3692 22.4009C76.103 22.4009 78.3192 24.0677 78.3192 26.1238C78.3192 28.18 76.103 29.8468 73.3692 29.8468ZM53.6174 20.0419C53.79 19.1827 54.0669 18.348 54.4367 17.5459C54.4153 17.5143 53.7604 16.6765 52.1472 19.0079C51.2563 20.2942 52.8297 20.8122 53.6174 20.0419ZM53.5652 24.0018C52.9012 24.7732 52.2749 25.4209 51.8611 25.9379C50.9968 27.0188 53.2455 28.3511 54.4572 26.8145C54.0373 25.9203 53.7374 24.9746 53.5652 24.0018ZM84.5585 3.85257C84.9148 3.65072 85.2898 3.48376 85.6782 3.354C77.6152 -0.446595 67.6673 -0.446595 59.6053 3.354C60.0242 3.49907 60.4002 3.66458 60.7241 3.85257C68.1904 0.600611 77.1575 0.629218 84.5585 3.85257ZM88.2702 13.8516C87.365 10.7028 85.1051 9.42167 84.2285 8.80867C82.4661 7.57756 82.5622 5.75798 84.0681 4.18972C76.8725 1.1564 68.3262 1.19113 61.2155 4.18972C62.7214 5.75798 62.8164 7.57756 61.0551 8.80867C60.1785 9.42167 57.9175 10.7028 57.0134 13.8516C64.6994 5.93064 80.5842 5.92962 88.2702 13.8516ZM94.4298 27.5746C93.6881 29.2675 91.3474 28.915 89.9467 28.3868C88.0771 31.2311 84.9671 33.5462 81.1369 34.9449L84.1794 40.1002C90.0918 37.5246 94.4676 33.2132 96.3986 28.1365C95.7154 28.0613 95.0498 27.8713 94.4298 27.5746ZM84.6198 41.4386C91.1472 38.6822 95.9459 33.8599 97.9321 28.0793C97.6007 28.1493 97.2623 28.1805 96.9237 28.1723C94.9774 33.4308 90.4831 37.8996 84.4042 40.5528C84.5266 40.8335 84.5995 41.1331 84.6198 41.4386ZM81.2033 41.5929L81.2074 41.6021C82.1749 43.9825 85.0448 42.6053 83.7463 40.3577L80.6537 35.1165C80.0867 35.3086 79.5063 35.4803 78.9107 35.6335C78.8985 35.7142 81.1706 41.4846 81.2033 41.5929ZM77.933 42.3336C78.5327 44.7151 81.4025 43.9887 80.7272 41.7594C80.7272 41.7594 78.3978 36.0963 78.2691 35.7868C77.6857 35.9196 77.0901 36.032 76.4843 36.1229C76.4781 36.1454 77.933 42.3336 77.933 42.3336ZM74.5635 42.7096C74.7771 45.2719 77.9217 44.8275 77.3578 42.2753C77.3588 42.2774 75.954 36.2118 75.9479 36.1985C75.3574 36.2731 74.7576 36.3303 74.1508 36.365C74.1303 36.4202 74.5615 42.6585 74.5635 42.7096ZM142.357 3.76675C142.075 3.55118 141.468 3.56242 140.701 3.51951C136.797 3.51951 127.729 3.77186 125.966 3.77186C124.202 3.77186 111.734 5.15724 109.782 5.7876C108.901 6.03996 108.712 6.92063 109.782 6.98397C110.853 7.04732 124.162 7.23735 126.051 7.23735C127.517 7.23735 135.138 7.21181 139.541 6.33828C141.926 5.86525 143.205 4.41244 142.357 3.76675ZM138.068 8.43065C135.801 8.49399 124.468 8.55734 123.145 8.49399C121.823 8.43065 111.558 7.86465 110.362 7.80131C107.774 7.66542 106.935 8.81786 109.669 9.43903C111.053 9.75473 123.837 11.2024 133.534 11.0134C135.36 11.0768 137.816 10.1317 138.446 9.25003C139.077 8.36833 138.384 8.43065 138.068 8.43065ZM133.661 12.5878C132.086 12.5878 113.51 11.2024 109.606 10.3841C106.21 9.86711 106.976 11.6121 108.347 11.8951C109.499 12.1332 123.27 14.7915 130.261 14.9172C132.59 14.8549 135.297 12.6501 133.661 12.5878ZM128.939 16.4916C126.735 16.2392 112.062 13.9098 108.096 12.8391C104.507 11.9094 105.231 14.294 106.521 14.6659C107.669 14.9969 120.173 18.0404 123.019 18.1927C124.226 18.2561 125.436 18.1745 126.623 17.9495C130.645 17.1455 128.939 16.4916 128.939 16.4916ZM123.019 19.766C121.445 19.4514 108.662 16.5539 105.009 15.1696C103.23 14.5494 102.694 16.2975 103.813 16.8063C104.505 17.1209 114.329 21.2137 118.989 21.4661C120.689 21.4661 123.833 20.5507 123.019 19.766ZM102.175 17.1209C102.049 17.3733 100.885 18.1916 100.38 18.443C102.461 20.471 107.369 22.2722 109.775 23.0435C110.209 23.1825 116.468 24.8927 116.771 22.8821C116.81 22.6195 116.312 22.4111 115.84 22.2854C112.44 21.5294 103.623 17.8136 102.175 17.1209ZM99.53 19.2623C99.0896 19.5147 98.2712 20.0184 97.8922 20.2074C98.6482 20.9001 103.314 24.6813 106.51 25.1768C109.401 26.0012 110.959 24.479 109.479 23.9855C106.646 23.1048 100.474 19.8917 99.53 19.2623ZM96.6346 20.9634C96.2555 21.1514 95.4372 21.4344 95.1235 21.5304C96.7347 23.8629 98.6319 25.1676 100.199 25.8092C102.72 26.7246 103.271 26.1739 103.286 25.8838C103.315 25.2769 101.942 24.5178 101.367 24.1336C99.9724 23.2029 97.7748 21.744 96.6346 20.9634ZM93.7994 21.9074C93.3908 22.0964 92.8871 22.2221 92.4457 22.3478C92.7778 23.492 93.6625 24.6353 94.5779 25.5006C95.2247 26.1116 97.0228 27.7084 97.5939 26.5989C98.1221 25.5742 96.5896 24.9356 95.901 24.0488C95.1542 23.3051 94.39 22.498 93.7994 21.9074ZM115.714 3.26818C114.076 3.26818 108.536 3.64619 106.52 3.64619C100.728 3.64619 92.8922 2.62453 87.507 3.73099C84.159 4.41857 83.6788 5.38813 83.6788 6.43023C83.6788 7.78598 84.8109 8.60025 85.6139 9.18873C86.5589 9.88142 89.4564 11.5815 89.582 15.99C90.337 15.6753 91.4077 15.4863 90.6527 13.9119C89.3327 11.2729 86.3679 8.05877 91.4404 6.68973C92.2404 6.47416 93.2263 6.33317 94.4318 6.29231C98.1466 6.16664 103.534 6.13906 105.36 5.82438C107.185 5.50971 114.078 3.89957 115.526 3.71158C116.156 3.64517 116.156 3.3305 115.714 3.26818ZM101.155 7.09738C99.8334 7.09738 95.7846 7.06979 94.4268 7.13416C90.6711 7.31295 87.9893 9.14275 90.7018 12.5766C91.233 13.2478 92.6531 14.6546 93.2202 15.1583C93.7238 15.5363 94.6689 14.906 93.8495 13.9619C94.9212 14.5913 96.2432 14.4656 95.6139 13.0179C96.5579 13.774 98.1323 13.8363 97.1883 11.8849C97.8176 12.3886 99.5811 12.3263 98.447 10.8142C99.3921 11.1289 100.463 10.5618 99.769 9.61783C100.966 9.80786 101.659 8.92514 100.398 8.23347C101.597 8.54508 101.911 7.1597 101.155 7.09738ZM104.851 6.42819C103.843 6.49153 102.875 6.63967 102.853 7.03506C102.832 7.42023 103.575 7.70425 104.504 7.87691C105.009 7.9709 107.466 8.42146 107.519 7.22815C107.573 6.03587 105.361 6.39549 104.851 6.42819ZM104.762 8.47254C103.568 8.38161 102.169 8.32849 102.169 8.7157C102.169 9.1591 102.707 9.71693 103.749 9.9703C106.125 10.5475 106.834 9.85281 106.929 9.50953C107.231 8.41839 105.298 8.51341 104.762 8.47254ZM103.234 10.2441C102.023 10.0449 101.052 9.93863 100.898 10.2533C100.382 11.3117 103.682 12.2415 104.127 12.1883C104.803 12.1076 105.201 12.3538 105.461 11.5753C105.832 10.4587 103.617 10.3074 103.234 10.2441ZM102.14 11.8267C101.352 11.5059 100.532 11.323 100.207 11.843C99.9478 12.2578 99.9621 12.8442 101.018 13.3602C103.102 14.3788 104.108 13.9752 104.208 13.6483C104.307 13.3224 104.336 12.7186 102.14 11.8267ZM100.602 13.3265C99.3256 12.8718 98.2365 12.7564 98.0496 13.1998C97.8432 13.6881 98.5931 14.3032 99.7455 15.0367C101.655 16.2525 102.377 15.7499 102.577 15.2779C102.757 14.8508 102.888 14.1234 100.602 13.3265ZM99.7067 15.617C97.5255 14.294 96.8481 14.2695 96.6305 14.5882C96.42 14.8978 96.6591 15.3208 97.03 15.7233C97.5306 16.2658 99.5258 18.0394 100.201 17.0341C100.579 16.4732 100.306 15.9808 99.7067 15.617ZM96.0972 15.7877C94.8252 15.143 94.4359 16.038 95.1439 16.8553C96.7581 18.7209 97.7237 18.395 98.1334 18.0844C98.5042 17.8034 98.7596 17.1455 96.0972 15.7877ZM94.767 17.2119C92.2046 15.1879 91.3954 16.6775 93.8413 19.0304C94.2633 19.435 94.767 20.0878 95.6272 19.4932C96.6458 18.7873 95.3289 17.8402 94.767 17.2119ZM86.7336 4.87832C84.8639 5.81315 84.0906 6.8062 86.0113 8.16298C86.2453 8.32849 85.9551 8.74022 85.7201 8.57471C83.6083 7.08308 84.063 5.53525 86.5089 4.42777C86.7653 4.29904 86.99 4.74959 86.7336 4.87832ZM91.6662 20.0419C92.4539 20.8122 94.0273 20.2942 93.1354 19.0079C91.5222 16.6765 90.8673 17.5143 90.8458 17.5459C91.2167 18.348 91.4925 19.1827 91.6662 20.0419ZM91.7173 24.0018C91.5487 24.9724 91.2463 25.9144 90.8264 26.8145C92.0381 28.3511 94.2868 27.0188 93.4224 25.9379C93.0086 25.4209 92.3814 24.7732 91.7173 24.0018Z" fill="#FEFEFA"/>
</svg>
