<svg width="151" height="34" viewBox="0 0 151 34" fill="none" xmlns="http://www.w3.org/2000/svg">
<path fill-rule="evenodd" clip-rule="evenodd" d="M85.2409 12.4916C84.4909 11.5625 84.8951 10.0542 86.0076 9.17506C87.12 8.29593 88.7408 8.4126 89.4241 9.24589C90.1865 10.1709 89.8365 11.6625 88.7283 12.5416C87.62 13.4207 85.9909 13.4165 85.2409 12.4916ZM30.9725 3.06283C34.7116 1.69558 38.5819 0.718209 42.5219 0.146292C45.4343 -0.253691 48.7133 0.0587955 49.6883 2.45036C50.6591 4.83775 49.1508 9.1459 40.622 12.9457C32.3224 16.6456 21.7478 18.433 15.1523 18.5747C13.9911 19.97 12.9891 21.4904 12.1649 23.1078C11.3983 24.5786 11.0442 26.0493 11.0983 27.1326C11.2191 29.5658 13.1274 30.8616 16.0564 30.6241C17.6397 30.495 19.4771 29.7867 21.477 28.7325C25.4519 26.6368 30.085 23.1245 34.6014 19.8788C35.2222 19.4329 36.5764 18.5122 36.6764 18.4455C39.3096 16.7164 41.6928 15.6081 44.4885 14.954C45.3801 14.7457 46.9134 14.5207 48.6008 14.5748C51.084 14.6498 53.4756 15.1123 54.7589 15.8956C54.1298 16.2873 53.5381 16.8164 53.2006 17.1122C49.7883 20.0954 47.0134 23.5911 45.6176 25.7743C45.2176 26.3993 44.9551 27.2618 45.2676 27.5451C45.5301 27.7867 46.101 27.7909 46.9801 27.2326C48.6675 26.1618 52.2923 22.8036 54.4964 20.912C55.013 20.4704 58.0962 18.158 59.1087 17.5539L59.1712 17.5122C61.3419 16.2206 63.3252 15.5415 64.696 15.1706C67.8 14.329 70.6624 14.4707 71.1415 14.8123C73.9143 12.2505 76.6314 9.62918 79.2911 6.95016C80.5869 6.95016 83.0743 6.94599 84.4451 6.91683C83.9907 7.22216 83.5552 7.5547 83.141 7.91262C81.8035 9.20006 77.3579 13.4707 73.7706 17.1039C69.8832 21.037 67.7042 23.5744 66.5584 25.566C65.9751 26.5743 65.7292 27.3909 66.0792 27.6784C66.4584 27.9951 67.2334 27.7368 68.1208 27.1493C70.1332 25.816 75.7288 20.7537 77.6787 18.808C77.6787 18.808 80.9369 15.5623 81.6661 14.8873C82.9618 14.8915 85.3409 14.8831 86.7075 14.854C86.3367 15.104 85.6575 15.5706 85.3742 15.8414C82.7535 18.3622 79.2078 22.0453 77.6579 24.2619C76.4371 26.0118 76.5954 27.1118 77.0162 27.5534C77.8204 28.3951 80.3661 27.9076 84.0826 25.8743C83.7743 24.1994 84.3617 21.6162 85.6742 19.5913C88.4866 15.2498 94.3738 9.8042 98.9153 7.52097C101.194 6.37519 102.657 6.18353 103.557 6.90433C104.64 7.77096 104.311 9.77087 103.111 11.6416C99.4694 17.2997 95.4779 20.7037 87.7241 25.7035C87.7199 27.0326 88.4574 27.9159 90.3615 27.9159C92.8489 27.9159 95.3446 27.0451 97.9612 25.7327C97.7112 24.0827 98.3778 21.5079 99.6319 19.5746C102.423 15.2706 108.344 9.78337 112.861 7.50847C115.223 6.32102 116.602 6.20436 117.494 6.90016C118.627 7.78346 118.248 9.82087 116.969 11.7999C113.44 17.2664 109.469 20.6537 101.582 25.741C101.457 27.1784 102.203 27.8867 103.336 27.8534C105.14 27.8034 107.394 26.2701 110.731 23.2453C111.823 22.2578 115.469 18.9955 116.34 18.4288C119.006 16.6789 121.368 15.5914 124.148 14.929C125.866 14.562 127.63 14.4567 129.381 14.6165C131.351 14.7707 133.205 15.1748 134.422 15.8664C133.751 16.2873 133.11 16.8581 132.818 17.1122C129.934 19.6527 127.396 22.5607 125.268 25.7618C124.827 26.4576 124.627 27.2576 124.914 27.5243C125.222 27.8034 125.822 27.7034 126.602 27.2118C128.289 26.141 134.847 20.1579 134.914 20.0913C137.58 17.483 140.563 15.5831 143.692 14.6207C146.53 13.7499 149.401 13.8957 150.267 15.8248C151.509 18.5872 148.792 22.0245 144.63 22.7911L144.23 21.3329C146.276 19.9954 148.134 17.4039 147.184 16.3831C146.492 15.6373 145.013 16.0123 143.797 16.7122C141.688 17.9247 138.722 20.6996 137.009 23.5994C135.893 25.4827 135.751 27.4034 136.809 28.3701C137.851 29.32 139.38 29.3742 140.855 29.0159C144.117 28.2242 146.88 26.0785 149.146 23.6453L149.805 25.5285C147.301 28.1326 144.376 29.9575 141.347 30.7325C137.934 31.6074 135.422 31.2241 133.793 29.5367C132.68 28.3867 132.247 26.5076 132.568 24.5786C130.601 26.4076 129.081 27.7826 127.864 28.6242C126.352 29.67 124.41 30.4283 123.014 29.4867C121.602 28.5367 121.843 26.1035 122.406 25.0119C120.871 26.4201 119.205 27.6786 117.431 28.77C115.081 30.1991 112.773 30.2741 111.706 28.97C111.031 28.1409 110.777 26.791 111.294 25.1077C109.415 26.7785 107.561 28.2659 105.802 29.1325C104.752 29.68 103.578 29.9469 102.394 29.9075C100.324 29.8117 99.1652 28.7825 98.5069 27.4201C94.9321 29.2992 92.3906 29.9158 89.774 29.9158C87.27 29.9158 85.6117 28.87 84.7367 27.4993C83.2998 28.3803 81.7552 29.0721 80.1411 29.5575C77.887 30.1783 75.6705 30.1575 74.5788 29.0409C73.7705 28.2159 73.1831 26.6451 74.0247 24.3869C71.9373 26.3451 70.4249 27.7284 69.1541 28.62C67.6875 29.645 65.4459 30.52 64.1168 29.4575C62.5877 28.2326 63.1418 25.9077 63.6918 24.9785C63.2335 25.4077 62.8002 25.7702 62.3711 26.1368C61.19 27.142 59.9383 28.061 58.6254 28.8867C56.4172 30.295 54.6089 30.17 53.5506 29.5033C52.209 28.6659 52.1382 26.6618 52.6923 24.8702C50.8466 26.566 49.3633 27.8534 48.2092 28.6534C46.6551 29.7325 44.7593 30.445 43.3427 29.4908C41.7886 28.4451 42.3636 25.7618 42.7219 25.0702C42.0386 25.6952 41.2886 26.2868 40.5262 26.8701C39.6467 27.5509 38.733 28.1865 37.7888 28.7742C35.5639 30.1241 33.2015 30.3741 32.089 29.0159C31.2182 27.9492 30.9808 26.1327 32.1932 23.7661C25.1019 29.3283 19.248 33.1198 13.8649 33.1198C8.17761 33.1198 5.11108 27.8784 6.8235 22.537C7.32311 20.9552 8.04561 19.4526 8.96923 18.0747C3.75279 17.1414 0.87793 15.329 0.590442 12.1166C0.319621 9.07924 2.77367 6.93349 4.60692 5.72521C6.02457 4.7846 7.52849 3.98101 9.09838 3.32532C13.3024 1.58373 19.5479 0.442112 24.3894 0.604605L25.2269 2.45452C25.0102 2.41703 24.7727 2.39619 24.5144 2.37119C22.6811 2.22537 19.4063 2.48786 16.0523 3.32115C13.0524 4.06279 9.74419 5.38356 7.70678 7.12515C4.8319 9.58338 4.93608 12.0624 5.92354 13.529C6.81517 14.8498 8.09427 15.6248 10.4858 16.0789C11.3691 15.0498 12.3899 14.0498 13.5524 13.0249C18.5355 8.65425 24.7769 5.30023 30.9725 3.06283ZM17.0814 16.5122C26.1018 16.2039 34.1223 12.4249 40.672 9.23756C45.2884 6.99183 48.3675 4.5461 47.6717 2.93367C47.4509 2.42119 46.7759 2.1462 45.9468 2.06704C44.9073 1.98556 43.8617 2.03455 42.8344 2.21287C39.9554 2.63785 36.6639 3.62531 32.8599 5.50439C31.4932 6.17936 30.0641 6.96683 28.56 7.88762C25.7268 9.62088 22.7311 11.75 19.5563 14.3332C18.7021 15.0257 17.8765 15.7527 17.0814 16.5122ZM102.049 9.50005C103.023 8.10011 102.319 7.60013 100.974 8.49176C97.9195 10.5125 95.0905 13.2291 92.8239 15.8039C90.499 18.4455 88.4907 21.512 87.9908 23.4536C90.5323 21.7453 93.0364 19.4996 95.1988 17.3414C98.1611 14.3707 100.803 11.2916 102.049 9.50005ZM115.998 9.50005C116.969 8.10844 116.29 7.58763 114.915 8.49176C109.794 11.8624 103.194 19.0121 101.915 23.5036C104.436 21.8578 107.494 19.0746 110.161 16.3164C112.744 13.6457 114.931 11.0291 115.998 9.50005ZM128.314 16.7914C128.089 16.6164 127.327 16.3914 126.443 16.3831C125.485 16.3747 124.331 16.7039 123.252 17.2872C119.431 19.3663 116.577 22.1328 114.602 25.266C113.956 26.2951 114.006 27.1284 114.285 27.3826C114.673 27.7367 115.423 27.6451 116.748 26.9951C119.581 25.6077 124.102 21.2037 128.314 16.7914ZM69.4166 16.8414C69.0584 16.612 68.649 16.4746 68.225 16.4414C67.1567 16.324 66.0773 16.5179 65.1167 16.9997C61.9044 18.5413 58.7337 21.0495 56.1088 24.8994C55.3755 25.9743 55.1422 27.0993 55.538 27.4701C55.963 27.8659 56.8963 27.7284 58.0129 27.0868C61.7086 24.9577 65.7001 20.6746 69.4166 16.8414ZM43.9094 21.5829C45.4676 20.0913 47.0884 18.458 48.6633 16.8039C48.4133 16.6206 47.5883 16.4081 46.7717 16.4039C45.8468 16.3956 44.5801 16.7664 43.5802 17.308C40.0647 19.1747 37.0932 21.9209 34.9556 25.2785C34.3056 26.3201 34.3389 27.1159 34.6514 27.4034C35.0472 27.7659 35.7806 27.6701 37.0889 27.0285C38.8554 26.1577 41.2928 24.0869 43.9094 21.5829ZM148.584 31.0949C147.739 31.0949 147.055 30.4103 147.055 29.5658C147.055 28.7213 147.739 28.0367 148.584 28.0367C149.428 28.0367 150.113 28.7213 150.113 29.5658C150.113 30.4103 149.428 31.0949 148.584 31.0949ZM148.584 30.9158C149.33 30.9158 149.934 30.3114 149.934 29.5658C149.934 28.8203 149.33 28.2159 148.584 28.2159C147.838 28.2159 147.234 28.8203 147.234 29.5658C147.234 30.3114 147.838 30.9158 148.584 30.9158ZM148.017 30.4325V28.7159H148.767C148.913 28.7159 149.055 28.7242 149.184 28.8034C149.313 28.8742 149.376 29.0284 149.376 29.17C149.376 29.5075 149.138 29.6325 148.834 29.6408L149.355 30.4325H149.105L148.613 29.6408H148.226V30.4325H148.017ZM148.226 28.87V29.4783H148.546C148.788 29.4783 149.159 29.52 149.159 29.17C149.159 28.9075 148.926 28.8742 148.713 28.8742H148.226V28.87Z" fill="white"/>
</svg>
