<svg width="140" height="45" viewBox="0 0 140 45" fill="none" xmlns="http://www.w3.org/2000/svg">
<path fill-rule="evenodd" clip-rule="evenodd" d="M57.4962 10.5121C60.1404 10.5105 62.3944 12.8123 61.8506 15.7439L59.4835 28.5172C58.8601 31.8787 56.0097 34.249 52.5901 34.2458L39.7261 34.2347C36.6464 34.2331 34.0229 31.5491 34.6559 28.1327L36.9553 15.7248C37.5206 12.6754 40.1034 10.5257 43.2053 10.5233L57.4962 10.5121ZM48.6912 28.6542C51.3035 28.6558 51.9293 27.8134 52.3911 25.7298L53.8848 17.6946C54.1117 16.4756 53.1641 15.7479 52.3982 15.7479H47.594C45.4323 15.7495 44.4371 16.2957 43.9012 19.1859L42.5421 26.5172C42.1663 28.5451 43.9323 28.6526 45.1226 28.6542H48.6912ZM70.9854 28.6406L78.2689 28.655L83.5779 0.0119429L90.7651 0L84.4171 34.2434L66.5521 34.2355C63.228 34.2323 60.8283 31.6526 61.4812 28.1287L63.7814 15.72C64.3467 12.6698 66.9295 10.5312 70.0306 10.5288L80.0532 10.5304L79.0826 15.7614L74.4193 15.7622C72.2576 15.763 71.225 16.2901 70.6884 19.1803L69.3292 26.5116C69.0975 27.7616 69.7106 28.639 70.9854 28.6406ZM96.3489 10.5488L114.617 10.5296L109.391 38.6408C108.265 44.7166 104.624 44.9825 101.307 44.9809H101.016L101.019 44.9889L85.4657 45L86.4609 39.5915H99.5217C101.253 39.5915 102.297 38.3582 102.532 37.0922L106.497 15.7622L100.729 15.7654C98.5694 15.767 97.4762 16.2989 96.9396 19.189L95.5806 26.5204C95.204 28.5483 97.0622 28.6398 98.2517 28.6398H102.547L101.511 34.2363H92.856C89.5311 34.2347 87.144 31.7856 87.8192 28.1422L90.1194 15.7336C90.6839 12.6841 93.2469 10.5511 96.3489 10.5488ZM123.472 24.5339L124.274 20.2336H131.646L132.206 17.6954C132.424 16.4764 131.516 15.7487 130.78 15.7487H126.169C124.095 15.7503 123.14 16.2965 122.626 19.1866L121.321 26.518C120.96 28.5459 122.654 28.6406 123.798 28.6422L137.284 28.6438L136.245 34.2466L118.618 34.2355C115.662 34.2339 113.145 31.5499 113.753 28.1335L115.959 15.7256C116.501 12.6762 118.981 10.5265 121.957 10.5241L135.673 10.5129C138.21 10.5113 140.372 12.8131 139.851 15.7447L138.287 24.5371L123.472 24.5339ZM4.73334 8.69601L5.78192 3.04305L29.057 3.04464C33.4838 3.04464 36.4122 4.99372 35.6168 10.4803L32.6064 26.7226C31.1781 32.5531 28.9671 34.2355 19.6142 34.2371L0 34.2259L4.20868 11.5161L12.3155 11.5201L9.22308 28.2147H20.8801C21.9311 28.2099 23.8412 27.6565 24.4973 25.0888L27.0466 11.3322C27.2871 9.96196 26.2632 8.69124 24.1119 8.69522L4.73334 8.69601Z" fill="#FEFEFA"/>
</svg>
