<svg width="140" height="30" viewBox="0 0 140 30" fill="none" xmlns="http://www.w3.org/2000/svg">
<path d="M134.677 3.80285C137.519 3.80285 139.82 2.9517 139.82 1.90142C139.82 0.851877 137.519 0 134.677 0C131.836 0 129.533 0.851139 129.533 1.90142C129.533 2.95096 131.836 3.80285 134.677 3.80285Z" fill="#FEFEFA"/>
<path fill-rule="evenodd" clip-rule="evenodd" d="M103.722 25.3602V13.3616C103.722 11.5214 103.641 9.60226 101.692 8.2422C99.8411 6.94921 96.8889 6.95812 95.5562 6.96214C95.487 6.96235 95.4223 6.96254 95.3622 6.96254C94.1447 6.96254 90.0874 6.96254 88.2196 9.04245C86.5628 10.8889 86.6322 12.672 86.6686 13.6084C86.6732 13.7268 86.6773 13.8317 86.6773 13.9214H91.9941C91.9941 13.9214 92.3578 11.202 93.0889 10.4822C93.8237 9.75788 95.7679 8.96205 97.269 10.2417C97.8212 10.7138 98.039 11.3215 98.039 12.0015V15.4408C98.039 15.7616 97.7142 16.241 97.3094 16.241C97.3094 16.241 89.9228 16.4011 88.6252 17.3614C88.5585 17.4107 88.4922 17.4591 88.4265 17.5072L88.4255 17.508C87.2131 18.3948 86.1902 19.143 86.1902 22.4807C86.1902 25.9996 87.0829 27.3597 88.1388 28.0803C88.2566 28.1606 88.3673 28.242 88.4777 28.3232C89.3563 28.9689 90.2156 29.6004 94.4688 29.6004H105.831V27.28C104.858 27.28 103.722 26.4805 103.722 25.3602ZM97.4733 27.1996C97.7157 27.1996 98.0405 26.9201 98.0405 26.7202V20.1995C98.0405 19.5195 97.7973 18.4802 96.5394 18.4802L96.444 18.4801C95.129 18.4782 92.1168 18.4737 92.1168 21.3995V24.4795C92.1168 25.5202 92.6841 27.1996 94.6731 27.1996H97.4733Z" fill="#FEFEFA"/>
<path fill-rule="evenodd" clip-rule="evenodd" d="M38.6325 22.8805H32.9513V25.0408C32.9513 25.92 32.7889 27.7609 30.1107 27.7609C27.4325 27.7609 26.6213 26.0004 26.6213 24.7207V20.1611C26.6213 19.7614 26.9461 19.2008 27.514 19.2008H38.6325V13.3616C38.6325 10.7219 38.0645 9.92161 36.9279 8.802C35.7919 7.68165 31.8146 7.36229 30.0291 7.36229C25.4846 7.36229 24.0232 8.00176 22.7249 9.04172C21.4265 10.0817 20.9393 12.2412 20.9393 13.841V22.8798C20.9393 25.279 21.4265 26.9592 22.968 28.4793C24.5095 29.9994 29.2172 29.9994 30.1915 29.9994L30.3185 29.9997C31.4223 30.003 34.505 30.0122 36.7654 28.3996C39.1196 26.7202 38.6325 22.8805 38.6325 22.8805ZM29.8675 9.76231C27.0269 9.76231 26.6213 11.6822 26.6213 12.9618V15.9216C26.6213 16.4011 27.1084 16.8008 27.5948 16.8008H31.9777C32.5457 16.8008 32.9513 16.3207 32.9513 15.8412V12.9618C32.9513 11.8422 32.7081 9.76231 29.8675 9.76231Z" fill="#FEFEFA"/>
<path d="M50.1409 8.00175C50.1409 8.64195 50.952 9.28142 51.4391 9.44147C52.0071 9.04171 55.0101 7.36229 57.3636 7.36229C59.717 7.36229 60.9346 8.56156 60.9346 10.4018V19.2008H55.2541V12.402C55.2541 11.5221 55.0101 10.8819 54.199 10.8023C53.3871 10.7226 51.2768 12.402 50.7088 13.2023V25.3609C50.7088 26.4813 51.8455 27.2808 52.8191 27.2808V29.6011H42.9181V27.2011C43.8916 27.2011 44.9468 26.881 45.0284 25.4413V11.9211C45.0284 11.5214 44.3788 10.401 42.9181 10.401V8.00175H50.1409Z" fill="#FEFEFA"/>
<path d="M73.3513 9.44147C72.8649 9.28142 72.0538 8.64195 72.0538 8.00175H64.831V10.401C66.2917 10.401 66.9413 11.5214 66.9413 11.9211V25.4413C66.8597 26.881 65.8046 27.2011 64.831 27.2011V29.6011H74.732V27.2808C73.7577 27.2808 72.6217 26.4813 72.6217 25.3609V13.2023C73.1889 12.402 75.2992 10.7226 76.1104 10.8023C76.923 10.8819 77.1655 11.5221 77.1655 12.402V19.2008H82.8467V10.4018C82.8467 8.56156 81.6299 7.36229 79.2765 7.36229C76.923 7.36229 73.92 9.04171 73.3513 9.44147Z" fill="#FEFEFA"/>
<path d="M130.1 8.00175H140V10.4018C138.945 10.4018 137.89 11.1216 137.89 12.0812V25.3602C137.89 26.4805 139.026 27.28 140 27.28V29.6004H130.1V27.2004C131.073 27.2004 132.128 26.8803 132.209 25.4406V11.9219C132.209 11.5214 131.56 10.4018 130.1 10.4018V8.00175Z" fill="#FEFEFA"/>
<path d="M117.275 9.44147C116.789 9.28142 115.976 8.64195 115.976 8.00175H108.753V10.401C110.214 10.401 110.863 11.5214 110.863 11.9211V25.4413C110.783 26.881 109.728 27.2011 108.753 27.2011V29.6011H118.654V27.2808C117.68 27.2808 116.544 26.4813 116.544 25.3609V13.2023C117.113 12.402 119.223 10.7226 120.034 10.8023C120.845 10.8819 121.089 11.5221 121.089 12.402V19.2008H126.771V10.4018C126.771 8.56156 125.554 7.36229 123.2 7.36229C120.845 7.36229 117.844 9.04171 117.275 9.44147Z" fill="#FEFEFA"/>
<path d="M0 26.7202V29.5996H14.2037V26.7202H12.7423C10.6321 26.7202 9.73932 25.3609 9.73932 24.6403V17.9212C9.73932 16.6408 10.5512 16.3214 11.5255 16.4011C12.7386 16.5006 13.6351 17.8408 13.6351 18.641H16.0701V9.76157H13.6351C13.6351 12.4013 11.9311 12.4809 11.444 12.4809C10.9568 12.4809 9.98327 12.2412 9.73932 11.6018V6.16229C9.73932 4.08238 11.1192 3.84267 12.1743 3.84267H127.047V0.163002H2.1918L0.0815735 3.84267H1.94788C3.97656 3.84267 4.05811 6.32233 4.05811 7.36229V24.6403C4.05811 26.5602 2.43428 26.7202 1.62311 26.7202H0Z" fill="#FEFEFA"/>
</svg>
