<svg width="119" height="45" viewBox="0 0 119 45" fill="none" xmlns="http://www.w3.org/2000/svg">
<path d="M77.5696 25.7423C78.95 24.054 80.6382 22.9031 81.9818 23.0564C83.6293 23.2478 83.7838 24.8597 82.9781 26.3552L83.4004 26.471C83.4004 26.471 82.0962 28.6577 80.7539 30.0006C78.3758 32.4169 76.8409 31.6113 76.4956 31.3429C76.1503 31.0746 75.8819 30.1157 76.0345 29.1562C76.1503 28.1973 76.879 26.5861 77.5696 25.7423Z" fill="#FEFEFA"/>
<path fill-rule="evenodd" clip-rule="evenodd" d="M4.14331 22.5191C4.14395 32.801 28.8873 41.1257 59.5002 41.1257C90.0751 41.1257 114.895 32.801 114.895 22.5191C114.895 12.2766 90.0751 3.95189 59.5002 3.95189C28.8873 3.95189 4.14331 12.2766 4.14331 22.5191ZM57.0568 10.8562C56.0852 10.5315 55.2293 10.2454 54.5299 10.0557C54.6405 10.1602 54.7175 10.3302 54.6289 10.5509C54.5901 10.6278 54.2067 11.0494 54.0541 11.1645C53.9438 11.2637 53.7954 11.3835 53.6139 11.5302C52.532 12.4043 50.2697 14.2322 47.8391 18.3383C50.1409 18.2232 52.8262 17.7628 52.8262 17.7628C52.8262 17.7628 52.673 17.2643 52.673 16.8421C52.7881 15.1927 53.7469 14.195 54.9747 14.387C55.6659 14.5021 56.1257 15.0776 56.1257 15.6912C56.1257 16.3436 55.6272 17.3025 55.1281 17.7628C54.7821 18.0305 54.3981 18.2995 53.9384 18.5297C53.9384 18.9519 54.5132 19.2972 55.0123 19.336C54.9802 19.4535 54.96 19.5532 54.9435 19.6351C54.9007 19.8467 54.8819 19.9389 54.7439 19.9114C53.593 19.9114 53.1327 18.7986 53.1327 18.7986C51.599 19.067 50.1028 19.259 47.0717 19.5661C39.4375 31.919 37.0594 33.9525 32.3788 33.9525C29.0411 33.9525 26.0876 31.7658 26.0106 27.8527C25.9718 25.4746 27.8902 22.5585 31.458 21.6759C31.8802 21.6759 32.0334 21.8298 32.0334 22.06C32.0334 22.2139 31.8802 22.4053 31.5343 22.5585C30.4985 22.9426 28.6958 24.9754 28.6958 26.8557C28.6958 28.2749 29.5784 29.848 31.074 30.1927C31.4118 30.2853 31.7252 30.2789 32.0334 30.2727C32.1104 30.2712 32.1871 30.2696 32.2637 30.2696C35.9847 30.2696 40.1662 26.0882 44.6929 19.72C43.9642 19.7582 40.8567 20.1041 40.0892 20.986C39.7446 21.2543 39.5144 21.1011 39.4375 20.794C39.4375 20.717 39.5526 20.4487 39.6683 20.2948C40.7846 19.0386 43.9326 18.6714 45.1564 18.5287C45.278 18.5145 45.3806 18.5026 45.4603 18.4922C48.7497 13.4484 52.9441 10.2151 54.1298 9.95403C54.1043 9.94805 54.079 9.94225 54.0541 9.93662C51.0999 9.24608 48.4146 8.67062 46.3042 8.67062C38.9002 8.67062 35.6006 11.855 35.7545 14.7704C35.8315 15.9595 36.7897 16.727 38.2096 16.458C39.7446 16.1897 41.8925 14.7317 42.4298 13.4657C42.5449 13.1973 42.8521 13.1585 42.9672 13.2355C43.1973 13.4275 43.1204 13.6958 43.1204 13.6958C42.9283 15.192 40.6265 19.3353 36.6371 19.3353C34.4122 19.3353 32.9161 17.2637 32.9542 15.2302C32.9924 11.4322 36.8673 7.59602 46.4192 7.59602C48.2219 7.59602 50.2554 7.74926 52.481 8.13332C55.0505 8.59368 61.4568 9.66766 66.6741 9.7446C66.9847 9.7446 67.3092 9.74661 67.6437 9.74869C69.3757 9.75944 71.371 9.77183 73.0428 9.51441C74.0511 9.34941 74.4723 9.24569 74.7295 9.18237C75.0105 9.11317 75.0957 9.0922 75.5366 9.0922C76.3035 9.0922 76.3035 9.39932 76.3035 9.70644C76.3035 10.9343 72.0063 13.2743 68.3616 13.2743C64.2926 13.2743 60.1051 11.8749 57.0568 10.8562ZM73.9005 26.3321C73.9348 26.3011 73.9687 26.2704 74.0023 26.2401C74.5455 25.7288 75.0388 25.2125 75.5133 24.7159C77.3173 22.8277 78.8506 21.2229 81.8279 21.2531C83.8585 21.2873 84.5299 22.7428 84.9233 23.5958C84.9684 23.6935 85.0098 23.7832 85.0492 23.862L89.998 15.4991H93.0286L84.8196 30.0388C84.791 30.0956 84.7547 30.1617 84.7145 30.2346C84.5379 30.5548 84.2888 31.0061 84.3204 31.3811C84.3986 32.1098 85.3188 31.9184 84.9735 31.9184C86.6229 31.8415 89.6529 28.6959 90.3822 27.929L90.3918 27.9167C90.546 27.7221 90.8076 27.3917 90.957 27.3917C91.1109 27.3917 91.418 27.5449 91.418 27.7751C91.418 27.929 91.0727 28.5038 90.8043 28.8491C89.2693 30.7675 86.738 33.7211 83.8607 33.798C82.4415 33.798 81.9035 33.2226 81.7122 32.1104C81.0604 32.6852 78.8349 33.6829 76.5719 33.6829C74.6917 33.6448 73.9242 32.532 73.5414 31.6501C73.1961 30.9214 73.0422 29.8474 73.3105 28.7734C72.2747 29.3107 71.3158 29.387 69.9347 29.3489C68.3228 29.3101 67.3251 28.5814 66.8273 26.7011C66.4067 27.4723 66.0781 28.0732 65.7991 28.5836C64.8564 30.308 64.4792 30.9981 63.0293 33.7217H59.7686L63.95 26.6248C64.4879 25.6653 64.7563 24.8985 64.947 24.0935C65.0627 23.6325 64.7174 23.2103 64.2183 23.1727C63.6816 23.1727 62.8004 23.71 61.9553 24.515C61.9553 24.515 59.8074 26.8169 58.2343 29.1568C56.7374 31.3824 54.1679 33.9137 51.3676 33.9137C49.3341 33.9137 47.4926 32.8016 47.1091 30.653C47.1091 30.653 46.9171 31.1515 45.1138 32.1874C45.089 32.1997 45.0582 32.2161 45.0234 32.2346C44.8435 32.3302 44.5586 32.4815 44.4626 32.4176C44.1167 32.1111 43.9254 31.727 43.8866 31.458C43.9934 31.494 44.1994 31.3311 44.8115 30.8471C44.8587 30.8098 44.9084 30.7705 44.9606 30.7293C46.3798 29.6554 46.6869 28.8103 46.6869 28.8103C46.9643 28.2237 47.4169 27.3635 47.8027 26.6301C47.8962 26.4524 47.9858 26.2822 48.068 26.1251C49.2195 23.8232 51.2137 21.4833 54.4744 21.3682C55.0117 21.3682 55.1649 21.5983 55.28 21.7904C55.5865 22.0206 55.472 22.4809 55.472 22.4809C53.1702 22.8262 51.5977 24.1685 50.6382 25.4733C50.0634 26.3171 49.4491 27.6982 49.334 28.6952C49.1038 30.4216 49.9095 31.5719 51.0985 31.8408C53.3234 32.1861 55.1649 30.5748 56.6229 28.0816C57.007 27.4292 57.2754 25.741 57.2754 24.8203C57.2754 23.8995 56.7761 22.9407 56.3927 22.5566C56.3927 21.9048 56.8144 21.4826 57.3129 21.4826C57.4661 21.4826 57.6199 21.4826 57.7732 21.6359C58.5407 22.4034 58.9629 23.8614 58.9629 24.9735C58.9629 25.3576 58.9629 25.741 58.886 26.1251C58.9519 26.0451 59.0184 25.9641 59.0856 25.8824C60.6626 23.9649 62.5945 21.6161 64.1039 21.138C64.4104 20.9847 64.7174 20.9847 65.0239 20.9847C67.9012 20.9078 67.5178 23.5167 67.5178 23.5167C69.0515 21.7522 70.1262 21.0998 71.5454 21.1761C73.0804 21.2531 73.6169 22.3277 73.6169 23.1715C73.5782 24.1685 72.8508 25.3194 71.5854 25.3576C70.4714 25.3576 69.8196 24.8203 69.4744 23.8232C68.7457 24.0922 68.4011 24.5907 68.2472 25.5878C68.0164 26.8538 68.9758 27.8514 70.203 27.8514C72.221 27.852 73.1519 27.0097 73.9005 26.3321Z" fill="#FEFEFA"/>
<path fill-rule="evenodd" clip-rule="evenodd" d="M0 22.5191C0 34.9489 26.6242 45 59.5002 45C92.3381 45 118.962 34.9483 118.962 22.5191C118.962 10.0899 92.3381 0 59.5002 0C26.6242 0 0 10.0899 0 22.5191ZM116.698 22.5191C116.698 33.7211 91.1109 42.6982 59.5002 42.6982C27.9665 42.6982 2.34064 33.7211 2.34064 22.5191C2.34064 11.3559 27.9665 2.26367 59.5002 2.26367C91.1109 2.26367 116.698 11.3559 116.698 22.5191Z" fill="#FEFEFA"/>
</svg>
