<svg width="112" height="45" viewBox="0 0 112 45" fill="none" xmlns="http://www.w3.org/2000/svg">
<path fill-rule="evenodd" clip-rule="evenodd" d="M93.3924 24.0266C93.3014 29.0456 94.3853 31.704 98.5227 31.704C102.653 31.704 103.246 27.1756 103.246 23.7295C103.246 20.2813 102.462 16.9338 98.1225 16.9338C95.4603 16.9338 93.4947 19.0025 93.3924 24.0266ZM85.0222 45V11.0264H93.4946V12.4045C93.4946 14.2427 94.2361 13.4847 94.8334 12.7683C94.9335 12.6486 96.8217 10.3373 101.074 10.3373C105.314 10.3373 111.91 13.2907 111.91 23.7296C111.91 31.8041 107.975 37.7115 101.179 37.7115C97.4342 37.7115 95.2693 36.2371 94.7742 35.6421C94.2785 35.0553 93.5902 34.9529 93.5902 35.6421V44.9999L85.0222 45ZM19.537 0H28.6956V24.0266C28.6956 28.1595 26.921 36.8276 14.2201 36.8276C1.5177 36.8276 0.139648 28.7485 0.139648 24.2222V19.7916H9.00259V24.1222C9.00259 26.7806 10.7756 29.2412 14.1216 29.2412C17.4691 29.2412 19.537 27.3711 19.537 24.2222V0ZM47.8489 20.3821C47.8489 17.9177 46.4731 15.5548 43.3219 15.5548C40.2693 15.5548 39.1853 17.7191 39.1853 20.3821H47.8489ZM42.4387 10.0417C49.631 10.0417 55.9303 12.7979 55.9303 25.501H38.8964C38.8964 29.5384 40.5687 31.2128 43.5227 31.2128C46.4775 31.2128 47.4615 28.8477 47.4615 28.8477H55.834C55.834 32.4924 50.8113 37.4159 43.2271 37.3181C34.5642 37.3181 30.3292 30.9172 30.3292 24.3193C30.3292 17.7191 34.0685 10.0417 42.4387 10.0417ZM75.0798 20.3821C75.0798 17.9177 73.7024 15.5548 70.5513 15.5548C67.5003 15.5548 66.4139 17.7191 66.4139 20.3821H75.0798ZM69.6696 10.0417C76.8612 10.0417 83.1589 12.7979 83.1589 25.501H66.1258C66.1258 29.5384 67.7995 31.2128 70.7559 31.2128C73.7077 31.2128 74.6931 28.8477 74.6931 28.8477H83.0656C83.0656 32.4924 78.0421 37.4159 70.4603 37.3181C61.7928 37.3181 57.5577 30.9172 57.5577 24.3193C57.5577 17.7191 61.3016 10.0417 69.6696 10.0417Z" fill="white"/>
</svg>
