<svg width="90" height="45" viewBox="0 0 90 45" fill="none" xmlns="http://www.w3.org/2000/svg">
<path fill-rule="evenodd" clip-rule="evenodd" d="M29.9055 22.007C32.367 25.5178 34.842 29.0191 37.3304 32.5109C37.4519 32.6689 37.5007 33.2776 37.0016 33.2776L31.7674 33.3142C31.2194 33.3142 30.696 32.8758 30.4284 32.5593L27.1663 28.5422L24.0868 24.7325L24.075 32.4862C24.075 32.815 23.7831 33.3018 23.442 33.3142L18.6221 33.3384C18.2809 33.3384 17.7941 32.8032 17.7941 32.4501V13.8386C17.7941 13.6441 16.9182 13.4979 16.93 12.7919C16.9419 12.074 17.2949 11.9278 17.6845 11.9278H23.3086C23.6128 11.9278 24.112 12.2324 24.112 12.7069L24.0878 19.6696L27.1672 15.6407L29.3822 12.7558C29.6986 12.3544 30.4289 11.8918 30.7943 11.8918L35.6996 11.9283C36.2106 11.9283 36.5029 12.342 36.2595 12.7074L29.9055 22.007ZM47.9685 11.9288C48.3946 11.9288 48.7961 12.2329 48.7961 12.7074V32.4871C48.7961 32.9502 48.6504 33.2786 48.1028 33.2786L45.133 33.3028L43.1368 33.3151C42.7107 33.3151 42.4061 32.9863 42.4061 32.4871V13.7057C42.4061 13.6934 41.6146 13.4865 41.4931 12.7321C41.6027 12.3183 41.7489 11.9288 42.4061 11.9288H47.9685ZM64.8999 2.33688C79.5679 6.01278 89.6831 13.6815 89.6822 22.5062C89.6822 31.3313 79.5669 38.9996 64.8994 42.6755C58.9839 44.1725 52.3263 45 45.2905 45H45.1325C38.7539 45 32.668 44.2944 27.1663 43.0403C11.7201 39.5106 0.911133 31.6236 0.911133 22.5062C0.911133 13.3892 11.7201 5.50175 27.1667 1.97152C32.6685 0.717908 38.7548 0.0118637 45.133 0.0118637C45.1932 0.0118637 45.2421 0 45.291 0C52.3268 0 58.9844 0.839857 64.8999 2.33688ZM64.8999 37.7701C77.7169 34.8245 86.4447 29.0788 86.4447 22.5062C86.4447 15.9335 77.7169 10.1883 64.8999 7.24267C59.0698 5.89179 52.387 5.125 45.291 5.125H45.133C38.706 5.13686 32.6078 5.78217 27.1667 6.91431C13.5459 9.75036 4.14907 15.6782 4.14907 22.5066C4.14907 29.3351 13.5459 35.2629 27.1667 38.099C32.6078 39.2311 38.706 39.8764 45.133 39.8764C45.1932 39.8764 45.2421 39.8883 45.291 39.8883C52.387 39.8883 59.0698 39.1215 64.8999 37.7701ZM68.7338 12.7321L75.4536 32.536C75.5385 32.7794 75.2215 33.3151 74.9539 33.3151L70.3528 33.2786C70.0491 33.2786 69.4773 32.8283 69.3919 32.5484L65.2894 19.9624C65.2534 19.8405 65.0707 19.7797 64.9004 19.7797C64.7912 19.7797 64.6816 19.8286 64.6446 19.9135C63.9514 22.007 63.2449 24.1005 62.5388 26.1944L60.4453 32.4748C60.2869 32.9498 59.7388 33.2781 59.3497 33.2781L54.9313 33.3147C54.5417 33.3147 54.2622 32.7306 54.3714 32.4141L60.713 13.7057C60.7742 13.5477 59.6539 13.5838 59.6657 12.5129C59.6657 12.148 60.0311 11.9288 60.2987 11.9288H67.8209C68.2351 11.9288 68.5521 12.3178 68.7338 12.7321Z" fill="#FEFEFA"/>
</svg>
