<svg width="150" height="11" viewBox="0 0 150 11" fill="none" xmlns="http://www.w3.org/2000/svg">
<path fill-rule="evenodd" clip-rule="evenodd" d="M21.9089 7.81477V2.6394C21.9089 0.987771 23.0739 0 24.6806 0H38.6433C40.25 0 41.415 0.987771 41.415 2.6394V7.81477C41.415 9.4672 40.25 10.4534 38.6433 10.4534H24.6806C23.0739 10.4534 21.9089 9.4672 21.9089 7.81477ZM0 0.000801086H17.1176C18.754 0.000801086 19.462 1.56344 19.462 3.00821V4.21727C19.462 6.04528 18.3708 7.373 16.469 7.373H2.38925V10.4534H0V0.000801086ZM43.9951 0.000801086H61.1856C62.4091 0.000801086 63.53 0.811383 63.53 2.0942V4.80736C63.53 5.94266 62.6449 6.54638 61.6426 6.81257C63.0874 7.49086 63.3825 8.99416 63.53 10.4534H61.1856C61.0822 8.87631 60.4039 7.373 58.5911 7.373H46.3835V10.4534H43.9951V0.000801086ZM85.1575 0.000801086V2.0942H69.265C68.6308 2.0942 68.3654 2.55121 68.3654 3.15574C68.3654 3.7306 68.6605 4.17317 69.265 4.17317H82.2247C84.3477 4.17317 85.4975 5.19061 85.4975 7.35777C85.4975 9.17135 84.5249 10.4534 82.6384 10.4534H66.3466V8.35997H82.2255C82.7707 8.35997 83.0072 7.88853 83.0072 7.40187C83.0072 6.84304 82.8901 6.25214 82.2255 6.25214H68.7639C67.0241 6.25214 66.0219 4.91079 66.0219 3.24473C66.0219 1.16576 67.1419 0.00160408 69.2658 0.00160408L85.1575 0.000801086ZM106.565 0.000801086V2.0942H90.8781C90.5101 2.0942 90.377 2.44778 90.377 2.75806V7.84524C90.377 8.15552 90.5694 8.36077 90.8781 8.36077H106.565V10.4542H90.8781C89.1679 10.4542 88.0046 9.27478 88.0046 7.54939V3.06834C88.0046 1.0928 88.844 0.00160408 90.8781 0.00160408L106.565 0.000801086ZM109.13 0.000801086H111.534V4.06974H125.408V0.000801086H127.87V10.4534H125.408V6.16314H111.534V10.4534H109.13V0.000801086ZM130.391 0.000801086H150V2.0942H132.779V4.11464H150V6.19281H132.779V8.35997H150V10.4534H130.391V0.000801086ZM25.6836 8.35997H37.8031C38.5399 8.35997 39.1444 8.03606 39.1444 7.19501V3.25916C39.1444 2.41891 38.5551 2.0942 37.8031 2.0942H25.6836C24.9316 2.0942 24.3271 2.41891 24.3271 3.25916V7.19501C24.3271 8.03606 24.946 8.35997 25.6836 8.35997ZM2.38925 2.0942V5.2788H16.012C16.6021 5.2788 17.1176 5.04308 17.1176 4.37922V3.20063C17.1176 2.50791 16.7047 2.095 16.012 2.095L2.38925 2.0942ZM46.3835 5.2788H60.5963C61.0678 5.2788 61.1856 4.88032 61.1856 4.48265V3.06674C61.1856 2.38845 60.9355 2.0934 60.242 2.0934H46.3835V5.2788Z" fill="#FEFEFA"/>
</svg>
