<svg width="141" height="38" viewBox="0 0 141 38" fill="none" xmlns="http://www.w3.org/2000/svg">
<path d="M87.8459 0V19.9835C87.7642 20.0931 104.353 9.78986 104.353 9.78986L87.8459 0Z" fill="#FEFEFA"/>
<path d="M122.726 12.487H118.591C116.268 12.4054 114.81 13.9431 114.864 16.1813V38H108.623V16.1813C109.108 11.138 113.432 7.20065 118.591 7.17345H122.726V12.487Z" fill="#FEFEFA"/>
<path d="M126.128 28.642L126.156 28.6683C126.697 33.6308 131.02 37.5138 136.125 37.5418H140.285V32.2274H136.125C133.829 32.309 131.803 30.7713 131.856 28.5604V12.2711H138.773V6.66173H131.748V0.890837H126.128L126.128 28.642Z" fill="#FEFEFA"/>
<path d="M52.7516 37.677H46.5141V15.8574H46.5405C46.486 13.7272 44.163 11.9201 41.8392 11.9201C39.5154 11.9201 37.1651 13.7272 37.1379 15.8574V16.0733C37.1379 16.1277 37.1379 16.1541 37.1651 16.1813H37.1379V37.677H30.897V16.2093H30.8698V15.8583C30.8698 10.1673 35.7873 5.55583 41.8383 5.55583C45.0265 5.55583 47.9166 6.85044 49.916 8.90072C51.9154 6.82409 54.8328 5.50228 58.0482 5.50228C64.0719 5.50228 69.0168 10.1409 69.0168 15.8047C69.0168 15.8582 69.01 15.9186 69.0032 15.9791C68.9964 16.0399 68.9896 16.1008 68.9896 16.1549V37.6778H62.7487V16.1558H62.7214C62.9377 13.8904 60.4785 11.8946 58.0473 11.8946C55.778 11.8946 52.9952 13.5938 52.8061 15.6696V16.1277C52.8061 16.1413 52.7993 16.1547 52.7925 16.1681C52.7857 16.1815 52.7789 16.1949 52.7789 16.2085H52.7516V37.677Z" fill="#FEFEFA"/>
<path d="M0.285156 28.9106L6.41791 28.3181C6.84964 30.7721 11.6046 32.1203 13.7122 32.3906C15.468 32.6329 20.9528 31.2584 20.9528 28.4524C20.9528 24.8445 16.7495 24.5031 12.5431 24.1615C10.5862 24.0025 8.62858 23.8435 7.09317 23.3556C3.20336 22.1154 1.04132 19.8228 1.04132 15.8047C1.04132 9.5204 7.90383 5.42153 13.3068 5.42153C17.2247 5.42153 20.1694 6.25796 22.1688 7.98354C24.1409 9.70911 25.6813 11.8665 25.7622 14.7524L19.4668 15.0218C19.0887 12.8916 16.9276 11.3539 14.1447 11.3004C12.2535 11.274 9.65971 12.2439 8.68726 12.946C7.30947 13.944 7.90385 17.8278 9.44342 18.3404C11.8041 19.121 13.9699 19.0811 16.013 19.0435C18.2724 19.0018 20.3817 18.9629 22.4387 20.0396C25.6268 21.5773 26.8965 25.6226 26.8965 28.0767C26.8965 35.1141 19.7376 37.7305 13.6585 37.7305C8.47181 37.7297 0.960423 34.9254 0.285156 28.9106Z" fill="#FEFEFA"/>
<path d="M103.624 21.953C103.543 19.0944 102.652 16.4516 101.219 14.1862L100.967 14.3208C99.4842 15.1116 98.0001 15.9031 96.4907 16.6947C97.6531 18.3123 98.3019 20.281 98.3019 22.4112C98.3019 27.8863 93.816 32.3643 88.333 32.3643C82.8219 32.3643 78.336 27.8863 78.336 22.4112C78.336 17.6926 81.6587 13.7281 86.0892 12.7029C86.1406 11.0269 86.2139 9.35096 86.2881 7.65396L86.3055 7.25506C78.8231 8.253 73.0403 14.6716 73.0403 22.4112C73.0403 30.8265 79.9045 37.677 88.333 37.677C92.1044 37.6789 95.7427 36.2851 98.5446 33.7651V37.677H103.65V21.953H103.624Z" fill="#FEFEFA"/>
</svg>
