<svg width="150" height="20" viewBox="0 0 150 20" fill="none" xmlns="http://www.w3.org/2000/svg">
<path d="M3.93036 3.93036C1.93826 3.49963 0.430725 1.77675 0 0.0538483L24.6052 0V0.0538483C24.1744 1.77675 22.7207 3.39195 20.6748 3.93036H14.537L14.2139 4.03804V19.4903H10.3912V4.03804L10.0682 3.93036H3.93036Z" fill="#FEFEFA"/>
<path d="M37.85 3.93036H52.387C54.4329 3.55347 55.9404 1.7229 56.3173 0H33.8658C34.2965 1.7229 35.804 3.49963 37.85 3.93036Z" fill="#FEFEFA"/>
<path d="M146.07 3.93036H131.533C129.541 3.49963 128.033 1.7229 127.602 0H150C149.569 1.7229 148.116 3.55347 146.07 3.93036Z" fill="#FEFEFA"/>
<path d="M128.195 19.5441V7.75305H149.515V19.5441H145.747V11.6834H131.963V19.5441H128.195Z" fill="#FEFEFA"/>
<path d="M116.727 19.5441C118.611 18.7365 119.634 17.3367 120.065 15.7215H103.105V0.0538483H99.2821V19.5441H116.727Z" fill="#FEFEFA"/>
<path d="M84.476 3.87653H71.0158L71.0696 7.75305H88.514V19.5441H66.1702C67.0855 17.6597 68.916 16.206 71.0696 15.6138H84.7451V11.5757H67.3008V0.0538483H88.6217C88.191 1.72291 86.5219 3.28428 84.476 3.87653Z" fill="#FEFEFA"/>
<path d="M52.387 11.6296H37.85C35.804 11.1989 34.2965 9.4221 33.8658 7.6992H56.3173C55.9404 9.4221 54.4329 11.2527 52.387 11.6296Z" fill="#FEFEFA"/>
<path d="M37.85 19.5441H52.387C54.4329 19.1673 55.9404 17.3367 56.3173 15.6138H33.8658C34.2965 17.3367 35.804 19.1673 37.85 19.5441Z" fill="#FEFEFA"/>
</svg>
