<svg width="22" height="17" viewBox="0 0 22 17" fill="none" xmlns="http://www.w3.org/2000/svg">
<path d="M21.707 7.29301L14.707 0.293011C14.5184 0.110853 14.2658 0.010058 14.0036 0.0123364C13.7414 0.0146148 13.4906 0.119784 13.3052 0.305192C13.1198 0.4906 13.0146 0.741413 13.0123 1.00361C13.01 1.26581 13.1108 1.51841 13.293 1.70701L18.586 7.00001H1C0.734784 7.00001 0.48043 7.10537 0.292893 7.2929C0.105357 7.48044 0 7.73479 0 8.00001C0 8.26523 0.105357 8.51958 0.292893 8.70712C0.48043 8.89465 0.734784 9.00001 1 9.00001H18.586L13.293 14.293C13.1975 14.3853 13.1213 14.4956 13.0689 14.6176C13.0165 14.7396 12.9889 14.8708 12.9877 15.0036C12.9866 15.1364 13.0119 15.2681 13.0622 15.391C13.1125 15.5139 13.1867 15.6255 13.2806 15.7194C13.3745 15.8133 13.4861 15.8876 13.609 15.9378C13.7319 15.9881 13.8636 16.0134 13.9964 16.0123C14.1292 16.0111 14.2604 15.9835 14.3824 15.9311C14.5044 15.8787 14.6148 15.8025 14.707 15.707L21.707 8.70701C21.8945 8.51948 21.9998 8.26517 21.9998 8.00001C21.9998 7.73485 21.8945 7.48054 21.707 7.29301Z" fill="white"/>
</svg>
