<svg width="20" height="20" viewBox="0 0 20 20" fill="none" xmlns="http://www.w3.org/2000/svg">
<g clip-path="url(#clip0_3023_17799)">
<path d="M0.132185 10.3205L4.67754 14.8659C4.84081 15.0566 5.12776 15.0788 5.31842 14.9155C5.50908 14.7522 5.53131 14.4652 5.36799 14.2746C5.35276 14.2568 5.33619 14.2402 5.31842 14.225L1.55032 10.4523L19.5455 10.4523C19.7965 10.4523 20 10.2488 20 9.99777C20 9.74672 19.7965 9.54325 19.5455 9.54325L1.55032 9.54325L5.31842 5.77515C5.50908 5.61187 5.53131 5.32492 5.36799 5.13426C5.20467 4.9436 4.91776 4.92138 4.7271 5.08469C4.70933 5.09993 4.69273 5.11649 4.67753 5.13426L0.132144 9.67965C-0.0440621 9.85688 -0.0440621 10.1432 0.132185 10.3205Z" fill="#323B50"/>
</g>
<defs>
<clipPath id="clip0_3023_17799">
<rect width="20" height="20" fill="white" transform="translate(20 20) rotate(180)"/>
</clipPath>
</defs>
</svg>
