<svg width="32" height="32" viewBox="0 0 32 32" fill="none" xmlns="http://www.w3.org/2000/svg">
<path d="M17.7679 16L31.6339 2.13395C32.1221 1.64576 32.1221 0.854264 31.6339 0.36614C31.1457 -0.121984 30.3542 -0.122047 29.8661 0.36614L16 14.2322L2.13395 0.36614C1.64576 -0.122047 0.854264 -0.122047 0.36614 0.36614C-0.121984 0.854326 -0.122047 1.64582 0.36614 2.13395L14.2322 16L0.36614 29.8661C-0.122047 30.3543 -0.122047 31.1458 0.36614 31.6339C0.610202 31.878 0.930139 32 1.25008 32C1.57001 32 1.88989 31.878 2.13401 31.6339L16 17.7679L29.866 31.6339C30.1101 31.878 30.43 32 30.75 32C31.0699 32 31.3898 31.878 31.6339 31.6339C32.1221 31.1457 32.1221 30.3542 31.6339 29.8661L17.7679 16Z" fill="#006458"/>
</svg>
