<svg width="28" height="28" viewBox="0 0 28 28" fill="none" xmlns="http://www.w3.org/2000/svg">
<path d="M15.5469 14L27.6796 1.8672C28.1068 1.44004 28.1068 0.74748 27.6796 0.320372C27.2525 -0.106736 26.5599 -0.106791 26.1328 0.320372L14 12.4532L1.8672 0.320372C1.44004 -0.106791 0.74748 -0.106791 0.320372 0.320372C-0.106736 0.747535 -0.106791 1.4401 0.320372 1.8672L12.4531 14L0.320372 26.1328C-0.106791 26.56 -0.106791 27.2525 0.320372 27.6796C0.533926 27.8932 0.813871 27.9999 1.09382 27.9999C1.37376 27.9999 1.65365 27.8932 1.86726 27.6796L14 15.5469L26.1327 27.6796C26.3463 27.8932 26.6262 27.9999 26.9062 27.9999C27.1861 27.9999 27.466 27.8932 27.6796 27.6796C28.1068 27.2525 28.1068 26.5599 27.6796 26.1328L15.5469 14Z" fill="#006458"/>
</svg>
