<svg width="24" height="24" viewBox="0 0 24 24" fill="none" xmlns="http://www.w3.org/2000/svg">
<g clip-path="url(#clip0_3023_18311)">
<path d="M8.75 17.6123V22.2503C8.75 22.5743 8.958 22.8613 9.266 22.9633C9.343 22.9883 9.422 23.0003 9.5 23.0003C9.734 23.0003 9.96 22.8903 10.104 22.6943L12.817 19.0023L8.75 17.6123Z" fill="white"/>
<path d="M23.685 0.138967C23.455 -0.0240335 23.153 -0.0460335 22.903 0.0849665L0.403014 11.835C0.137014 11.974 -0.019986 12.258 0.00201396 12.557C0.025014 12.857 0.224014 13.113 0.507014 13.21L6.76201 15.348L20.083 3.95797L9.77501 16.377L20.258 19.96C20.336 19.986 20.418 20 20.5 20C20.636 20 20.771 19.963 20.89 19.891C21.08 19.775 21.209 19.58 21.242 19.361L23.992 0.860967C24.033 0.580967 23.915 0.302967 23.685 0.138967Z" fill="white"/>
</g>
<defs>
<clipPath id="clip0_3023_18311">
<rect width="24" height="24" fill="white"/>
</clipPath>
</defs>
</svg>
