<svg width="256" height="256" viewBox="0 0 256 256" fill="none" xmlns="http://www.w3.org/2000/svg">
<rect width="256" height="256" rx="128" fill="#008576"/>
<path d="M176.531 42.5288C162.076 34.2999 145.766 29.8799 129.134 29.684C112.501 29.4881 96.0923 33.5227 81.4471 41.409C79.2947 42.5688 77.2003 43.8269 75.1497 45.1394C70.5905 48.0534 66.2783 51.3368 62.2566 54.9565L73.6262 66.3262L81.4471 74.1471L97.4999 90.1999L160.478 153.171L176.531 169.224V94.1049L160.478 85.8658V130.468L97.4999 67.4788L86.8211 56.8109C100.619 48.7917 116.457 44.9745 132.393 45.8277C148.328 46.681 163.669 52.1674 176.531 61.614C196.972 76.5977 210.28 100.766 210.28 127.996C210.282 139.629 207.811 151.131 203.03 161.737C198.25 172.343 191.27 181.812 182.552 189.516L176.531 183.498L160.478 167.442L97.4999 104.464L81.4471 88.411V163.904L97.4999 171.751V127.163L160.478 190.145L169.394 199.06L176.531 206.198L181.054 210.735C194.931 201.844 206.35 189.607 214.262 175.149C222.174 160.691 226.325 144.477 226.333 127.996C226.333 91.4215 206.24 59.4797 176.531 42.5288Z" fill="white"/>
<path d="M160.485 203.584C150.557 207.858 139.883 210.129 129.075 210.267C118.266 210.405 107.537 208.407 97.5034 204.387C91.8521 202.125 86.4694 199.242 81.4543 195.792C59.8858 180.921 45.7201 156.094 45.7201 128.003C45.705 106.708 53.9822 86.2439 68.7975 70.9475L57.4388 59.5888C39.6146 77.8996 29.6492 102.449 29.6674 128.003C29.6674 165.377 50.6396 197.962 81.447 214.579C86.5813 217.346 91.9538 219.648 97.4998 221.454C117.996 228.167 140.133 227.932 160.482 220.785C165.533 219.012 170.428 216.823 175.117 214.241L163.209 202.333C162.302 202.767 161.394 203.184 160.485 203.584Z" fill="white"/>
</svg>
