<svg width="32" height="32" viewBox="0 0 32 32" fill="none" xmlns="http://www.w3.org/2000/svg">
<rect width="32" height="31.9994" rx="15.9997" fill="#008576"/>
<path d="M22.2043 5.07356C20.3563 4.02155 18.2713 3.45649 16.1449 3.43144C14.0186 3.4064 11.9208 3.9222 10.0486 4.93039C9.77338 5.07867 9.50564 5.23951 9.24347 5.40731C8.66062 5.77983 8.10933 6.19959 7.59518 6.66235L9.04871 8.11587L10.0486 9.11572L12.1008 11.168L20.1521 19.2183L22.2043 21.2706V11.6672L20.1521 10.6139V16.3159L12.1008 8.26323L10.7356 6.89941C12.4995 5.87422 14.5243 5.38623 16.5616 5.4953C18.5988 5.60438 20.56 6.30578 22.2043 7.51345C24.8176 9.42902 26.5189 12.5187 26.5189 15.9999C26.5191 17.4872 26.2032 18.9575 25.5921 20.3134C24.981 21.6694 24.0886 22.8799 22.9741 23.8648L22.2043 23.0955L20.1521 21.0428L12.1008 12.9915L10.0486 10.9393V20.5905L12.1008 21.5936V15.8934L20.1521 23.9452L21.2919 25.085L22.2043 25.9974L22.7826 26.5775C24.5566 25.4408 26.0165 23.8764 27.028 22.0281C28.0395 20.1798 28.5701 18.1068 28.5711 15.9999C28.5711 11.3241 26.0025 7.2406 22.2043 5.07356Z" fill="white"/>
<path d="M20.153 25.6632C18.8838 26.2097 17.5191 26.5 16.1374 26.5177C14.7556 26.5353 13.384 26.2798 12.1012 25.7659C11.3788 25.4767 10.6906 25.1082 10.0495 24.6671C7.2921 22.7659 5.48112 19.5921 5.48112 16.0008C5.47919 13.2784 6.53737 10.6622 8.4314 8.70668L6.97927 7.25455C4.70058 9.59545 3.42657 12.734 3.4289 16.0008C3.4289 20.7788 6.11004 24.9446 10.0485 27.0689C10.7049 27.4227 11.3918 27.7169 12.1008 27.9479C14.721 28.8061 17.5512 28.776 20.1526 27.8623C20.7983 27.6356 21.4241 27.3558 22.0235 27.0256L20.5012 25.5033C20.3853 25.5588 20.2692 25.6121 20.153 25.6632Z" fill="white"/>
</svg>
