<svg width="122" height="34" viewBox="0 0 122 34" fill="none" xmlns="http://www.w3.org/2000/svg">
<rect y="1" width="32" height="31.9994" rx="15.9997" fill="#008576"/>
<path d="M22.2043 6.07356C20.3563 5.02155 18.2712 4.45649 16.1449 4.43144C14.0186 4.4064 11.9208 4.9222 10.0485 5.93039C9.77335 6.07867 9.50561 6.23951 9.24344 6.40731C8.66059 6.77983 8.1093 7.19959 7.59515 7.66235L9.04868 9.11587L10.0485 10.1157L12.1008 12.168L20.1521 20.2183L22.2043 22.2706V12.6672L20.1521 11.6139V17.3159L12.1008 9.26323L10.7355 7.89941C12.4995 6.87422 14.5243 6.38623 16.5615 6.4953C18.5988 6.60438 20.5599 7.30578 22.2043 8.51345C24.8176 10.429 26.5189 13.5187 26.5189 16.9999C26.5191 18.4872 26.2032 19.9575 25.5921 21.3134C24.9809 22.6694 24.0885 23.8799 22.9741 24.8648L22.2043 24.0955L20.1521 22.0428L12.1008 13.9915L10.0485 11.9393V21.5905L12.1008 22.5936V16.8934L20.1521 24.9452L21.2918 26.085L22.2043 26.9974L22.7826 27.5775C24.5566 26.4408 26.0165 24.8764 27.028 23.0281C28.0394 21.1798 28.5701 19.1068 28.5711 16.9999C28.5711 12.3241 26.0024 8.2406 22.2043 6.07356Z" fill="white"/>
<path d="M20.153 26.6632C18.8838 27.2097 17.5191 27.5 16.1374 27.5177C14.7556 27.5353 13.384 27.2798 12.1012 26.7659C11.3788 26.4767 10.6906 26.1082 10.0495 25.6671C7.2921 23.7659 5.48112 20.5921 5.48112 17.0008C5.47919 14.2784 6.53737 11.6622 8.4314 9.70668L6.97927 8.25455C4.70058 10.5955 3.42657 13.734 3.4289 17.0008C3.4289 21.7788 6.11004 25.9446 10.0485 28.0689C10.7049 28.4227 11.3918 28.7169 12.1008 28.9479C14.721 29.8061 17.5512 29.776 20.1526 28.8623C20.7983 28.6356 21.4241 28.3558 22.0235 28.0256L20.5012 26.5033C20.3853 26.5588 20.2692 26.6121 20.153 26.6632Z" fill="white"/>
<path d="M116.106 29.344C115.434 29.344 114.87 29.116 114.414 28.66C113.982 28.18 113.766 27.616 113.766 26.968C113.766 26.296 113.982 25.744 114.414 25.312C114.87 24.856 115.434 24.628 116.106 24.628C116.778 24.628 117.33 24.856 117.762 25.312C118.218 25.744 118.446 26.296 118.446 26.968C118.446 27.616 118.218 28.18 117.762 28.66C117.33 29.116 116.778 29.344 116.106 29.344Z" fill="#008576"/>
<path d="M102.106 29.344C100.426 29.344 98.914 28.948 97.57 28.156C96.226 27.364 95.158 26.296 94.366 24.952C93.574 23.584 93.178 22.06 93.178 20.38C93.178 18.724 93.574 17.236 94.366 15.916C95.158 14.572 96.226 13.504 97.57 12.712C98.914 11.92 100.426 11.524 102.106 11.524C103.762 11.524 105.262 11.92 106.606 12.712C107.974 13.48 109.054 14.536 109.846 15.88C110.638 17.224 111.034 18.724 111.034 20.38C111.034 22.06 110.638 23.584 109.846 24.952C109.054 26.296 107.974 27.364 106.606 28.156C105.262 28.948 103.762 29.344 102.106 29.344ZM102.106 26.212C103.186 26.212 104.146 25.96 104.986 25.456C105.826 24.952 106.486 24.268 106.966 23.404C107.446 22.516 107.686 21.508 107.686 20.38C107.686 19.276 107.434 18.292 106.93 17.428C106.45 16.564 105.79 15.892 104.95 15.412C104.134 14.908 103.186 14.656 102.106 14.656C101.026 14.656 100.066 14.908 99.226 15.412C98.386 15.892 97.726 16.564 97.246 17.428C96.766 18.292 96.526 19.276 96.526 20.38C96.526 21.508 96.766 22.516 97.246 23.404C97.726 24.268 98.386 24.952 99.226 25.456C100.066 25.96 101.026 26.212 102.106 26.212Z" fill="#008576"/>
<path d="M81.1273 28.984V11.884H84.3673V28.984H81.1273ZM84.3673 19.228L83.1433 18.688C83.1433 16.504 83.6473 14.764 84.6553 13.468C85.6633 12.172 87.1153 11.524 89.0113 11.524C89.8753 11.524 90.6553 11.68 91.3513 11.992C92.0473 12.28 92.6953 12.772 93.2953 13.468L91.1713 15.664C90.8113 15.28 90.4153 15.004 89.9833 14.836C89.5513 14.668 89.0473 14.584 88.4713 14.584C87.2713 14.584 86.2873 14.968 85.5193 15.736C84.7513 16.504 84.3673 17.668 84.3673 19.228Z" fill="#008576"/>
<path d="M71.2213 28.984V4.72H74.4613V28.984H71.2213ZM67.0093 14.836V11.884H78.6733V14.836H67.0093Z" fill="#008576"/>
<path d="M61.2986 28.984V11.884H64.5386V28.984H61.2986ZM62.9186 8.464C62.3186 8.464 61.8266 8.27201 61.4426 7.88801C61.0586 7.48001 60.8666 6.97601 60.8666 6.37601C60.8666 5.80001 61.0586 5.32001 61.4426 4.93601C61.8266 4.52801 62.3186 4.32401 62.9186 4.32401C63.5186 4.32401 64.0106 4.52801 64.3946 4.93601C64.7786 5.32001 64.9706 5.80001 64.9706 6.37601C64.9706 6.97601 64.7786 7.48001 64.3946 7.88801C64.0106 8.27201 63.5186 8.464 62.9186 8.464Z" fill="#008576"/>
<path d="M37 28.984V4H39.376L40.384 7.924V28.984H37ZM54.28 28.984L38.944 8.5L39.376 4L54.748 24.448L54.28 28.984ZM54.28 28.984L53.272 25.276V4H56.656V28.984H54.28Z" fill="#008576"/>
</svg>
