<svg width="82" height="26" viewBox="0 0 82 26" fill="none" xmlns="http://www.w3.org/2000/svg">
<path d="M79.1055 25.344C78.4335 25.344 77.8695 25.116 77.4135 24.66C76.9815 24.18 76.7655 23.616 76.7655 22.968C76.7655 22.296 76.9815 21.744 77.4135 21.312C77.8695 20.856 78.4335 20.628 79.1055 20.628C79.7775 20.628 80.3295 20.856 80.7615 21.312C81.2175 21.744 81.4455 22.296 81.4455 22.968C81.4455 23.616 81.2175 24.18 80.7615 24.66C80.3295 25.116 79.7775 25.344 79.1055 25.344Z" fill="white"/>
<path d="M65.106 25.344C63.426 25.344 61.914 24.948 60.57 24.156C59.226 23.364 58.158 22.296 57.366 20.952C56.574 19.584 56.178 18.06 56.178 16.38C56.178 14.724 56.574 13.236 57.366 11.916C58.158 10.572 59.226 9.50399 60.57 8.71199C61.914 7.91999 63.426 7.52399 65.106 7.52399C66.762 7.52399 68.262 7.91999 69.606 8.71199C70.974 9.47999 72.054 10.536 72.846 11.88C73.638 13.224 74.034 14.724 74.034 16.38C74.034 18.06 73.638 19.584 72.846 20.952C72.054 22.296 70.974 23.364 69.606 24.156C68.262 24.948 66.762 25.344 65.106 25.344ZM65.106 22.212C66.186 22.212 67.146 21.96 67.986 21.456C68.826 20.952 69.486 20.268 69.966 19.404C70.446 18.516 70.686 17.508 70.686 16.38C70.686 15.276 70.434 14.292 69.93 13.428C69.45 12.564 68.79 11.892 67.95 11.412C67.134 10.908 66.186 10.656 65.106 10.656C64.026 10.656 63.066 10.908 62.226 11.412C61.386 11.892 60.726 12.564 60.246 13.428C59.766 14.292 59.526 15.276 59.526 16.38C59.526 17.508 59.766 18.516 60.246 19.404C60.726 20.268 61.386 20.952 62.226 21.456C63.066 21.96 64.026 22.212 65.106 22.212Z" fill="white"/>
<path d="M44.1273 24.984V7.88399H47.3673V24.984H44.1273ZM47.3673 15.228L46.1433 14.688C46.1433 12.504 46.6473 10.764 47.6553 9.46799C48.6633 8.17199 50.1153 7.52399 52.0113 7.52399C52.8753 7.52399 53.6553 7.67999 54.3513 7.99199C55.0473 8.27999 55.6953 8.77199 56.2953 9.46799L54.1713 11.664C53.8113 11.28 53.4153 11.004 52.9833 10.836C52.5513 10.668 52.0473 10.584 51.4713 10.584C50.2713 10.584 49.2873 10.968 48.5193 11.736C47.7513 12.504 47.3673 13.668 47.3673 15.228Z" fill="white"/>
<path d="M34.2213 24.984V0.719986H37.4613V24.984H34.2213ZM30.0093 10.836V7.88399H41.6733V10.836H30.0093Z" fill="white"/>
<path d="M24.2986 24.984V7.88399H27.5386V24.984H24.2986ZM25.9186 4.46399C25.3186 4.46399 24.8266 4.27199 24.4426 3.88799C24.0586 3.47999 23.8666 2.97599 23.8666 2.37599C23.8666 1.79999 24.0586 1.31999 24.4426 0.93599C24.8266 0.52799 25.3186 0.32399 25.9186 0.32399C26.5186 0.32399 27.0106 0.52799 27.3946 0.93599C27.7786 1.31999 27.9706 1.79999 27.9706 2.37599C27.9706 2.97599 27.7786 3.47999 27.3946 3.88799C27.0106 4.27199 26.5186 4.46399 25.9186 4.46399Z" fill="white"/>
<path d="M0 24.984V0H2.376L3.384 3.924V24.984H0ZM17.28 24.984L1.944 4.5L2.376 0L17.748 20.448L17.28 24.984ZM17.28 24.984L16.272 21.276V0H19.656V24.984H17.28Z" fill="white"/>
</svg>
