<svg width="61" height="60" viewBox="0 0 61 60" fill="none" xmlns="http://www.w3.org/2000/svg">
<path d="M51.8094 42.0042L44.7628 34.9566L46.1535 33.9462C47.5146 32.9574 48.0798 31.2178 47.5599 29.6175L46.6102 26.695C46.5099 26.3861 46.5099 26.0595 46.6102 25.7507L47.5599 22.828C48.0799 21.2278 47.5146 19.4882 46.1535 18.4995L43.6673 16.693C43.4045 16.5021 43.2125 16.238 43.1123 15.9291L42.1626 13.0064C41.6427 11.4063 40.1631 10.3311 38.4806 10.3311H35.4074C35.0826 10.3311 34.7721 10.2302 34.5094 10.0393L32.0232 8.23302C30.6621 7.24419 28.833 7.24419 27.4718 8.23302L24.9855 10.0395C24.7228 10.2304 24.4122 10.3313 24.0875 10.3313H21.0144C19.3319 10.3313 17.8522 11.4063 17.3322 13.0065L16.3826 15.9293C16.2822 16.238 16.0903 16.5021 15.8276 16.6931L13.3414 18.4995C11.9803 19.4884 11.4151 21.2279 11.9349 22.828L12.8846 25.7507C12.9849 26.0595 12.9849 26.3861 12.8846 26.6949L11.9349 29.6176C11.4151 31.2178 11.9803 32.9575 13.3414 33.9462L14.7321 34.9566L7.68549 42.0041C7.40588 42.2837 7.28623 42.6856 7.3672 43.0726C7.44818 43.4598 7.719 43.7799 8.08732 43.924L13.7469 46.1384L15.9613 51.7979C16.1053 52.1663 16.4254 52.437 16.8126 52.5181C16.8924 52.5348 16.9728 52.5429 17.0526 52.5429C17.3601 52.5429 17.6592 52.4217 17.8813 52.1997L26.5438 43.5382L27.4718 44.2125C28.1524 44.7069 28.9499 44.9541 29.7474 44.9541C30.5449 44.9541 31.3426 44.7069 32.0231 44.2124L32.9512 43.5381L41.6138 52.1997C41.8359 52.4217 42.1349 52.5429 42.4424 52.5429C42.5222 52.5429 42.6026 52.5348 42.6824 52.5181C43.0695 52.4371 43.3896 52.1663 43.5337 51.7979L45.7481 46.1384L51.4077 43.924C51.776 43.78 52.0467 43.4598 52.1278 43.0726C52.2088 42.6857 52.089 42.2837 51.8094 42.0042ZM17.491 49.2755L15.7427 44.807C15.6236 44.5025 15.3828 44.2618 15.0784 44.1427L10.6099 42.3943L16.4082 36.5951L17.3324 39.4391C17.8523 41.0393 19.3319 42.1144 21.0145 42.1144H24.0876C24.255 42.1144 24.4185 42.1417 24.5736 42.1937L17.491 49.2755ZM28.8493 42.3164L26.3632 40.51C25.6973 40.0263 24.9105 39.7706 24.0876 39.7706H21.0145C20.3505 39.7706 19.7666 39.3464 19.5615 38.7149L18.6118 35.7924C18.3689 35.0445 17.9121 34.402 17.2912 33.9241C17.2699 33.9059 17.2479 33.8889 17.2256 33.8725C17.2187 33.8673 17.2124 33.8616 17.2053 33.8565L14.7192 32.0501C14.1821 31.66 13.959 30.9734 14.1642 30.342L15.1139 27.4193C15.3682 26.6366 15.3682 25.8093 15.1139 25.0266L14.1642 22.104C13.959 21.4725 14.1821 20.786 14.7192 20.3957L17.2053 18.5893C17.8713 18.1055 18.3576 17.4361 18.6118 16.6536L19.5615 13.731C19.7666 13.0995 20.3506 12.6752 21.0145 12.6752H24.0876C24.9106 12.6752 25.6976 12.4195 26.3633 11.9358L28.8493 10.1296C29.3865 9.73934 30.1086 9.73923 30.6456 10.1296L33.1317 11.936C33.7976 12.4198 34.5844 12.6755 35.4074 12.6755H38.4806C39.1445 12.6755 39.7283 13.0998 39.9335 13.7312L40.8832 16.6538C41.1374 17.4365 41.6237 18.1058 42.2897 18.5896L44.7759 20.396C45.313 20.7863 45.536 21.4727 45.3308 22.1043L44.3811 25.027C44.1269 25.8096 44.1269 26.637 44.3811 27.4197L45.3308 30.3423C45.536 30.9738 45.313 31.6602 44.7758 32.0506L42.2898 33.8568C42.2811 33.8631 42.2733 33.8702 42.2646 33.8766C42.2448 33.8913 42.2252 33.9065 42.2061 33.9226C41.5841 34.4006 41.1265 35.0438 40.8832 35.7925L39.9335 38.7152C39.7283 39.3468 39.1445 39.771 38.4806 39.771H35.4074C34.5846 39.771 33.7977 40.0267 33.1317 40.5104L30.6457 42.3167C30.1081 42.7068 29.3864 42.7064 28.8493 42.3164ZM44.4166 44.1427C44.1122 44.2618 43.8715 44.5025 43.7523 44.807L42.004 49.2755L34.9213 42.1938C35.0764 42.1417 35.2399 42.1145 35.4072 42.1145H38.4805C40.1628 42.1145 41.6426 41.0394 42.1625 39.4393L43.0867 36.5951L48.8852 42.3945L44.4166 44.1427Z" fill="#66CABE"/>
<path d="M35.1671 34.9146C35.41 34.9146 35.6519 34.839 35.8561 34.6908C36.2169 34.4286 36.3977 33.9844 36.3224 33.5447L35.3914 28.1169L39.3349 24.2729C39.6543 23.9616 39.7692 23.4959 39.6314 23.0716C39.4934 22.6474 39.1268 22.3383 38.6854 22.2741L33.2355 21.4821L30.7984 16.5437C30.6009 16.1437 30.1936 15.8905 29.7474 15.8905C29.3013 15.8905 28.894 16.1437 28.6966 16.5437L26.2595 21.4821L20.8097 22.2741C20.3682 22.3382 20.0015 22.6474 19.8636 23.0716C19.7257 23.4959 19.8408 23.9616 20.1602 24.2729L24.1037 28.1169L23.1727 33.5447C23.0973 33.9844 23.278 34.4286 23.6389 34.6908C23.9997 34.953 24.4782 34.9875 24.873 34.7801L29.7474 32.2174L34.622 34.78C34.7934 34.8701 34.9806 34.9146 35.1671 34.9146ZM30.2927 29.8562C30.122 29.7664 29.9347 29.7217 29.7474 29.7217C29.5602 29.7217 29.3728 29.7666 29.2022 29.8562L25.8841 31.6007L26.5179 27.9059C26.5831 27.5257 26.457 27.1378 26.1808 26.8685L23.4965 24.2519L27.2062 23.7128C27.5879 23.6573 27.9179 23.4176 28.0885 23.0718L29.7474 19.7103L31.4063 23.0719C31.5771 23.4177 31.907 23.6575 32.2886 23.7129L35.9984 24.2521L33.314 26.8686C33.0379 27.1378 32.9118 27.5257 32.977 27.906L33.6108 31.6008L30.2927 29.8562Z" fill="#66CABE"/>
</svg>
