<svg width="48" height="47" viewBox="0 0 48 47" fill="none" xmlns="http://www.w3.org/2000/svg">
<g clip-path="url(#clip0_7625_3339)">
<path d="M9.42211 5.07373C7.70973 5.07373 6.31662 6.46638 6.31662 8.17803C6.31662 9.88967 7.70973 11.2823 9.42211 11.2823C11.1359 11.2823 12.5302 9.88967 12.5302 8.17803C12.5302 6.46638 11.1359 5.07373 9.42211 5.07373ZM9.42211 9.43096C8.7306 9.43096 8.16807 8.86889 8.16807 8.17803C8.16807 7.48716 8.7306 6.92518 9.42211 6.92518C10.115 6.92518 10.6788 7.48725 10.6788 8.17812C10.6788 8.86898 10.115 9.43096 9.42211 9.43096Z" fill="#008576"/>
<path d="M36.5757 5.07373H28.3664C26.654 5.07373 25.2609 6.46638 25.2609 8.17803C25.2609 9.88967 26.654 11.2823 28.3664 11.2823H36.5757C38.2881 11.2823 39.6812 9.88967 39.6812 8.17803C39.6812 6.46638 38.2881 5.07373 36.5757 5.07373ZM36.5757 9.43096H28.3664C27.6749 9.43096 27.1124 8.86889 27.1124 8.17803C27.1124 7.48716 27.675 6.92509 28.3664 6.92509H36.5757C37.2672 6.92509 37.8298 7.48716 37.8298 8.17803C37.8298 8.86889 37.2672 9.43096 36.5757 9.43096Z" fill="#008576"/>
<path d="M17.4701 5.07373C15.7577 5.07373 14.3646 6.46638 14.3646 8.17803C14.3646 9.88967 15.7577 11.2823 17.4701 11.2823C19.1839 11.2823 20.5782 9.88967 20.5782 8.17803C20.5782 6.46638 19.1839 5.07373 17.4701 5.07373ZM17.4701 9.43096C16.7786 9.43096 16.2161 8.86889 16.2161 8.17803C16.2161 7.48716 16.7787 6.92509 17.4701 6.92509C18.163 6.92509 18.7268 7.48716 18.7268 8.17803C18.7268 8.86889 18.163 9.43096 17.4701 9.43096Z" fill="#008576"/>
<path d="M15.9603 20.4197C15.4632 20.3006 14.9636 20.6075 14.8448 21.1049L13.0083 28.7899C12.8895 29.2872 13.1962 29.7866 13.6935 29.9054C13.7658 29.9227 13.8382 29.931 13.9094 29.931C14.3279 29.931 14.7074 29.6452 14.809 29.2203L16.6455 21.5352C16.7643 21.0379 16.4575 20.5386 15.9603 20.4197Z" fill="#008576"/>
<path d="M19.3593 29.0022C19.5357 29.1593 19.7557 29.2366 19.9747 29.2366C20.2296 29.2366 20.4834 29.132 20.6664 28.9266L23.2622 26.0126C23.6905 25.5358 23.6905 24.7892 23.2649 24.3154L20.6663 21.3984C20.3261 21.0165 19.7409 20.9829 19.3593 21.3228C18.9774 21.6629 18.9436 22.2481 19.2837 22.6298L21.5398 25.1624L19.2837 27.6951C18.9437 28.077 18.9775 28.6622 19.3593 29.0022Z" fill="#008576"/>
<path d="M10.2954 21.3229C9.91349 20.9828 9.32847 21.0169 8.98837 21.3985L6.39281 24.3122C5.96393 24.7891 5.96393 25.5361 6.38987 26.0097L8.98846 28.9267C9.17141 29.1322 9.42514 29.2367 9.68015 29.2367C9.89917 29.2367 10.1192 29.1594 10.2956 29.0023C10.6774 28.6622 10.7112 28.077 10.3711 27.6953L8.11501 25.1627L10.3711 22.63C10.711 22.2481 10.6772 21.6629 10.2954 21.3229Z" fill="#008576"/>
<path d="M45.7579 31.168H45.4142C45.2342 30.5849 45.0009 30.022 44.7163 29.4841L44.9616 29.2379C45.3533 28.8486 45.5695 28.3288 45.5703 27.7742C45.5712 27.2182 45.3557 26.6963 44.9636 26.3042L44.4857 25.8266V6.10862C44.4857 3.34747 42.5372 1.1012 40.142 1.1012H5.17696C2.78179 1.1012 0.833313 3.34747 0.833313 6.10862V31.9818C0.833313 34.743 2.78179 36.9893 5.17696 36.9893H10.6082C11.1194 36.9893 11.5339 36.5748 11.5339 36.0636C11.5339 35.5524 11.1194 35.1379 10.6082 35.1379H5.17696C3.82607 35.1379 2.68476 33.6926 2.68476 31.9819V15.1873H42.6341V24.5419C42.5286 24.5256 42.4218 24.515 42.313 24.515C42.3119 24.515 42.3108 24.515 42.3098 24.515C41.7552 24.5159 41.2353 24.7318 40.849 25.1202L40.5988 25.3694C40.0496 25.0792 39.4776 24.8432 38.8878 24.663V24.3332C38.8878 23.1891 37.9568 22.2584 36.8124 22.2584H35.1372C33.9942 22.2584 33.0644 23.1891 33.0644 24.3332V24.6856C32.4857 24.8674 31.9269 25.1014 31.3929 25.3856L31.1531 25.1466C30.7637 24.7552 30.2437 24.5391 29.6891 24.5383C29.6881 24.5383 29.6871 24.5383 29.686 24.5383C29.1313 24.5383 28.6104 24.7536 28.2191 25.1446L27.0355 26.3276C26.6434 26.7196 26.4279 27.2416 26.4288 27.7975C26.4296 28.3521 26.6457 28.872 27.0344 29.2582L27.2901 29.5146C27.0126 30.0443 26.7847 30.5968 26.6083 31.1678H26.2567C25.1137 31.1678 24.1839 32.0973 24.1839 33.24V34.9169C24.1839 34.9914 24.188 35.065 24.1957 35.1376H18.8095C18.2983 35.1376 17.8838 35.552 17.8838 36.0632C17.8838 36.5744 18.2983 36.9889 18.8095 36.9889H26.2566H26.6118C26.7908 37.5653 27.0222 38.1222 27.3045 38.6554L27.0544 38.9044C26.249 39.7141 26.2498 41.0285 27.0563 41.8344L28.2405 43.0181C28.6299 43.4095 29.1498 43.6255 29.7044 43.6264H29.7075C30.2623 43.6264 30.7831 43.4111 31.1745 43.02L31.4224 42.7722C31.9603 43.0558 32.5197 43.2875 33.0954 43.4655V43.8237C33.0954 44.9679 34.0252 45.8986 35.1683 45.8986H36.8461C37.989 45.8986 38.9188 44.9679 38.9188 43.8237V43.4677C39.5 43.2884 40.0616 43.0558 40.5989 42.7721L40.8457 43.018C41.235 43.4095 41.7549 43.6255 42.3095 43.6264H42.3127C42.8675 43.6264 43.3883 43.4111 43.7804 43.0193L44.9613 41.8363C45.3531 41.447 45.5692 40.9272 45.5701 40.3725C45.5709 39.8166 45.3554 39.2947 44.9632 38.9026L44.7162 38.6557C44.9979 38.1221 45.2291 37.5648 45.4079 36.989H45.7577C46.9021 36.989 47.8331 36.0595 47.8331 34.9169V33.24C47.8333 32.0975 46.9023 31.168 45.7579 31.168ZM2.68476 13.3359V6.10862C2.68476 4.39799 3.82607 2.95265 5.17696 2.95265H40.142C41.4929 2.95265 42.6342 4.39799 42.6342 6.10862V13.336H2.68476V13.3359ZM45.9819 34.9171C45.9819 35.0346 45.8772 35.1377 45.7578 35.1377H44.6992C44.2676 35.1377 43.8932 35.436 43.7968 35.8567C43.5969 36.7292 43.2535 37.5567 42.776 38.3163C42.5461 38.6821 42.5998 39.1583 42.9055 39.4638L43.6545 40.2124C43.7105 40.2684 43.7188 40.3352 43.7188 40.3701C43.7187 40.4117 43.7079 40.4722 43.6538 40.5258L42.4711 41.7107C42.415 41.7667 42.3481 41.7751 42.3128 41.7751C42.3127 41.7751 42.3126 41.7751 42.3126 41.7751C42.2706 41.7751 42.2099 41.7642 42.1557 41.7096L41.4039 40.9609C41.0981 40.6564 40.6228 40.6036 40.2577 40.8331C39.497 41.3116 38.666 41.6556 37.7878 41.8554C37.3665 41.9514 37.0676 42.326 37.0676 42.7582V43.824C37.0676 43.943 36.9641 44.0474 36.8462 44.0474H35.1685C35.0505 44.0474 34.947 43.9431 34.947 43.824V42.7555C34.947 42.3229 34.6474 41.948 34.2255 41.8526C33.3585 41.6565 32.529 41.3131 31.7603 40.8321C31.6089 40.7373 31.4387 40.691 31.2695 40.691C31.0304 40.691 30.7933 40.7834 30.6148 40.9621L29.8658 41.7107C29.8097 41.7667 29.7428 41.7751 29.7076 41.7751C29.7075 41.7751 29.7074 41.7751 29.7073 41.7751C29.6653 41.7751 29.6046 41.7642 29.5514 41.7108L28.3653 40.5252C28.2822 40.4422 28.2831 40.2952 28.3642 40.2136L29.1159 39.4649C29.4231 39.1591 29.4768 38.6812 29.2454 38.3147C28.7672 37.5576 28.4233 36.7307 28.2232 35.857C28.1268 35.4363 27.7525 35.1379 27.3207 35.1379H26.2568C26.1368 35.1379 26.0354 35.0368 26.0354 34.9172V33.2404C26.0354 33.1208 26.1368 33.0196 26.2568 33.0196H27.3181C27.7502 33.0196 28.1249 32.7206 28.2208 32.2994C28.4184 31.4312 28.7578 30.6077 29.2298 29.8515C29.4576 29.4864 29.4038 29.0125 29.0999 28.7077L28.3425 27.9482C28.2911 27.8972 28.2803 27.8367 28.2802 27.795C28.2802 27.7601 28.2885 27.6933 28.3445 27.6374L29.5279 26.4545C29.584 26.3985 29.6509 26.39 29.6862 26.39H29.6864C29.7284 26.3901 29.7892 26.401 29.8434 26.4556L30.5899 27.1991C30.8966 27.5045 31.3737 27.5569 31.7388 27.3252C32.4952 26.8456 33.3237 26.4983 34.2011 26.2929C34.6197 26.195 34.9157 25.8215 34.9157 25.3916V24.3335C34.9157 24.2124 35.0171 24.1101 35.1371 24.1101H36.8123C36.9337 24.1101 37.0363 24.2124 37.0363 24.3335V25.376C37.0363 25.8097 37.3374 26.1852 37.7609 26.2795C38.6417 26.4757 39.482 26.8221 40.2585 27.3093C40.6234 27.5381 41.0983 27.4852 41.4038 27.181L42.1586 26.4291C42.2098 26.3776 42.2705 26.3668 42.3125 26.3667H42.3127C42.348 26.3667 42.4149 26.3752 42.4709 26.4312L43.6544 27.614C43.7104 27.67 43.7187 27.7368 43.7187 27.7717C43.7186 27.8134 43.7078 27.8738 43.6533 27.9279L42.9042 28.6793C42.5991 28.9852 42.5463 29.4615 42.7768 29.8268C43.256 30.5866 43.6008 31.4187 43.8017 32.2997C43.8977 32.7209 44.2722 33.0197 44.7043 33.0197H45.7578C45.8771 33.0197 45.9819 33.123 45.9819 33.2405V34.9171Z" fill="#008576"/>
<path d="M36.0091 28.4253C32.8897 28.4253 30.3519 30.962 30.3519 34.0801C30.3519 37.1967 32.8897 39.7323 36.0091 39.7323C39.1272 39.7323 41.6638 37.1968 41.6638 34.0801C41.6638 30.9621 39.1272 28.4253 36.0091 28.4253ZM36.0091 37.8808C33.9107 37.8808 32.2033 36.1758 32.2033 34.0801C32.2033 31.9829 33.9107 30.2767 36.0091 30.2767C38.1062 30.2767 39.8124 31.9829 39.8124 34.0801C39.8124 36.1758 38.1061 37.8808 36.0091 37.8808Z" fill="#008576"/>
<path d="M14.7363 35.1378H14.7181C14.2069 35.1378 13.7925 35.5523 13.7925 36.0635C13.7925 36.5747 14.2069 36.9892 14.7181 36.9892H14.7363C15.2475 36.9892 15.662 36.5747 15.662 36.0635C15.662 35.5523 15.2475 35.1378 14.7363 35.1378Z" fill="#008576"/>
</g>
<defs>
<clipPath id="clip0_7625_3339">
<rect width="47" height="47" fill="white" transform="translate(0.833313)"/>
</clipPath>
</defs>
</svg>
