<svg width="48" height="47" viewBox="0 0 48 47" fill="none" xmlns="http://www.w3.org/2000/svg">
<g clip-path="url(#clip0_3015_9878)">
<path d="M9.0888 5.07373C7.37642 5.07373 5.98331 6.46638 5.98331 8.17803C5.98331 9.88967 7.37642 11.2823 9.0888 11.2823C10.8026 11.2823 12.1969 9.88967 12.1969 8.17803C12.1969 6.46638 10.8026 5.07373 9.0888 5.07373ZM9.0888 9.43096C8.39729 9.43096 7.83476 8.86889 7.83476 8.17803C7.83476 7.48716 8.39729 6.92518 9.0888 6.92518C9.78168 6.92518 10.3455 7.48725 10.3455 8.17812C10.3455 8.86898 9.78168 9.43096 9.0888 9.43096Z" fill="#CCEDE9"/>
<path d="M36.2424 5.07373H28.0331C26.3207 5.07373 24.9276 6.46638 24.9276 8.17803C24.9276 9.88967 26.3207 11.2823 28.0331 11.2823H36.2424C37.9548 11.2823 39.3479 9.88967 39.3479 8.17803C39.3479 6.46638 37.9548 5.07373 36.2424 5.07373ZM36.2424 9.43096H28.0331C27.3416 9.43096 26.7791 8.86889 26.7791 8.17803C26.7791 7.48716 27.3417 6.92509 28.0331 6.92509H36.2424C36.9339 6.92509 37.4964 7.48716 37.4964 8.17803C37.4964 8.86889 36.9339 9.43096 36.2424 9.43096Z" fill="#CCEDE9"/>
<path d="M17.1368 5.07373C15.4244 5.07373 14.0313 6.46638 14.0313 8.17803C14.0313 9.88967 15.4244 11.2823 17.1368 11.2823C18.8506 11.2823 20.2449 9.88967 20.2449 8.17803C20.2449 6.46638 18.8506 5.07373 17.1368 5.07373ZM17.1368 9.43096C16.4453 9.43096 15.8828 8.86889 15.8828 8.17803C15.8828 7.48716 16.4454 6.92509 17.1368 6.92509C17.8297 6.92509 18.3935 7.48716 18.3935 8.17803C18.3935 8.86889 17.8297 9.43096 17.1368 9.43096Z" fill="#CCEDE9"/>
<path d="M15.627 20.4197C15.1299 20.3006 14.6302 20.6075 14.5115 21.1049L12.675 28.7899C12.5562 29.2872 12.8629 29.7866 13.3601 29.9054C13.4325 29.9227 13.5049 29.931 13.5761 29.931C13.9946 29.931 14.3741 29.6452 14.4757 29.2203L16.3121 21.5352C16.431 21.0379 16.1242 20.5386 15.627 20.4197Z" fill="#CCEDE9"/>
<path d="M19.026 29.0022C19.2024 29.1593 19.4224 29.2366 19.6414 29.2366C19.8963 29.2366 20.1501 29.132 20.3331 28.9266L22.9289 26.0126C23.3572 25.5358 23.3572 24.7892 22.9316 24.3154L20.333 21.3984C19.9928 21.0165 19.4076 20.9829 19.026 21.3228C18.6441 21.6629 18.6103 22.2481 18.9504 22.6298L21.2065 25.1624L18.9504 27.6951C18.6104 28.077 18.6442 28.6622 19.026 29.0022Z" fill="#CCEDE9"/>
<path d="M9.96204 21.3229C9.58017 20.9828 8.99515 21.0169 8.65504 21.3985L6.05948 24.3122C5.63061 24.7891 5.63061 25.5361 6.05654 26.0097L8.65513 28.9267C8.83808 29.1322 9.09181 29.2367 9.34682 29.2367C9.56585 29.2367 9.78588 29.1594 9.96223 29.0023C10.3441 28.6622 10.3779 28.077 10.0378 27.6953L7.78168 25.1627L10.0378 22.63C10.3777 22.2481 10.3439 21.6629 9.96204 21.3229Z" fill="#CCEDE9"/>
<path d="M45.4246 31.168H45.0809C44.9009 30.5849 44.6676 30.022 44.383 29.4841L44.6283 29.2379C45.02 28.8486 45.2362 28.3288 45.237 27.7742C45.2378 27.2182 45.0224 26.6963 44.6302 26.3042L44.1523 25.8266V6.10862C44.1523 3.34747 42.2039 1.1012 39.8087 1.1012H4.84364C2.44848 1.1012 0.5 3.34747 0.5 6.10862V31.9818C0.5 34.743 2.44848 36.9893 4.84364 36.9893H10.2749C10.7861 36.9893 11.2006 36.5748 11.2006 36.0636C11.2006 35.5524 10.7861 35.1379 10.2749 35.1379H4.84364C3.49276 35.1379 2.35145 33.6926 2.35145 31.9819V15.1873H42.3008V24.5419C42.1953 24.5256 42.0885 24.515 41.9797 24.515C41.9786 24.515 41.9775 24.515 41.9765 24.515C41.4219 24.5159 40.902 24.7318 40.5157 25.1202L40.2655 25.3694C39.7163 25.0792 39.1443 24.8432 38.5545 24.663V24.3332C38.5545 23.1891 37.6235 22.2584 36.479 22.2584H34.8038C33.6609 22.2584 32.7311 23.1891 32.7311 24.3332V24.6856C32.1524 24.8674 31.5936 25.1014 31.0595 25.3856L30.8198 25.1466C30.4304 24.7552 29.9104 24.5391 29.3558 24.5383C29.3548 24.5383 29.3538 24.5383 29.3527 24.5383C28.7979 24.5383 28.2771 24.7536 27.8858 25.1446L26.7022 26.3276C26.3101 26.7196 26.0946 27.2416 26.0954 27.7975C26.0963 28.3521 26.3124 28.872 26.7011 29.2582L26.9568 29.5146C26.6793 30.0443 26.4513 30.5968 26.275 31.1678H25.9234C24.7804 31.1678 23.8506 32.0973 23.8506 33.24V34.9169C23.8506 34.9914 23.8547 35.065 23.8624 35.1376H18.4762C17.965 35.1376 17.5505 35.552 17.5505 36.0632C17.5505 36.5744 17.965 36.9889 18.4762 36.9889H25.9233H26.2785C26.4575 37.5653 26.6889 38.1222 26.9712 38.6554L26.721 38.9044C25.9157 39.7141 25.9164 41.0285 26.723 41.8344L27.9071 43.0181C28.2965 43.4095 28.8165 43.6255 29.3711 43.6264H29.3742C29.929 43.6264 30.4498 43.4111 30.8412 43.02L31.0891 42.7722C31.627 43.0558 32.1863 43.2875 32.7621 43.4655V43.8237C32.7621 44.9679 33.6919 45.8986 34.835 45.8986H36.5127C37.6557 45.8986 38.5855 44.9679 38.5855 43.8237V43.4677C39.1667 43.2884 39.7283 43.0558 40.2656 42.7721L40.5124 43.018C40.9017 43.4095 41.4216 43.6255 41.9762 43.6264H41.9794C42.5342 43.6264 43.055 43.4111 43.4471 43.0193L44.628 41.8363C45.0197 41.447 45.2359 40.9272 45.2367 40.3725C45.2376 39.8166 45.0221 39.2947 44.6299 38.9026L44.3829 38.6557C44.6646 38.1221 44.8958 37.5648 45.0745 36.989H45.4244C46.5688 36.989 47.4998 36.0595 47.4998 34.9169V33.24C47.5 32.0975 46.569 31.168 45.4246 31.168ZM2.35145 13.3359V6.10862C2.35145 4.39799 3.49276 2.95265 4.84364 2.95265H39.8087C41.1596 2.95265 42.3009 4.39799 42.3009 6.10862V13.336H2.35145V13.3359ZM45.6485 34.9171C45.6485 35.0346 45.5439 35.1377 45.4245 35.1377H44.3659C43.9342 35.1377 43.5599 35.436 43.4635 35.8567C43.2636 36.7292 42.9202 37.5567 42.4427 38.3163C42.2128 38.6821 42.2665 39.1583 42.5722 39.4638L43.3212 40.2124C43.3772 40.2684 43.3855 40.3352 43.3855 40.3701C43.3854 40.4117 43.3746 40.4722 43.3205 40.5258L42.1378 41.7107C42.0817 41.7667 42.0148 41.7751 41.9795 41.7751C41.9794 41.7751 41.9793 41.7751 41.9793 41.7751C41.9373 41.7751 41.8766 41.7642 41.8224 41.7096L41.0705 40.9609C40.7648 40.6564 40.2894 40.6036 39.9244 40.8331C39.1636 41.3116 38.3327 41.6556 37.4545 41.8554C37.0332 41.9514 36.7342 42.326 36.7342 42.7582V43.824C36.7342 43.943 36.6308 44.0474 36.5129 44.0474H34.8351C34.7172 44.0474 34.6137 43.9431 34.6137 43.824V42.7555C34.6137 42.3229 34.3141 41.948 33.8922 41.8526C33.0252 41.6565 32.1957 41.3131 31.427 40.8321C31.2755 40.7373 31.1054 40.691 30.9362 40.691C30.697 40.691 30.46 40.7834 30.2815 40.9621L29.5325 41.7107C29.4764 41.7667 29.4095 41.7751 29.3742 41.7751C29.3742 41.7751 29.3741 41.7751 29.374 41.7751C29.332 41.7751 29.2712 41.7642 29.2181 41.7108L28.032 40.5252C27.9489 40.4422 27.9498 40.2952 28.0309 40.2136L28.7826 39.4649C29.0898 39.1591 29.1435 38.6812 28.9121 38.3147C28.4339 37.5576 28.09 36.7307 27.8899 35.857C27.7935 35.4363 27.4192 35.1379 26.9874 35.1379H25.9235C25.8035 35.1379 25.7021 35.0368 25.7021 34.9172V33.2404C25.7021 33.1208 25.8035 33.0196 25.9235 33.0196H26.9848C27.4169 33.0196 27.7916 32.7206 27.8875 32.2994C28.0851 31.4312 28.4245 30.6077 28.8964 29.8515C29.1243 29.4864 29.0705 29.0125 28.7666 28.7077L28.0092 27.9482C27.9578 27.8972 27.947 27.8367 27.9469 27.795C27.9469 27.7601 27.9552 27.6933 28.0112 27.6374L29.1946 26.4545C29.2507 26.3985 29.3176 26.39 29.3529 26.39H29.3531C29.3951 26.3901 29.4559 26.401 29.5101 26.4556L30.2566 27.1991C30.5633 27.5045 31.0404 27.5569 31.4055 27.3252C32.1619 26.8456 32.9904 26.4983 33.8678 26.2929C34.2864 26.195 34.5824 25.8215 34.5824 25.3916V24.3335C34.5824 24.2124 34.6838 24.1101 34.8038 24.1101H36.479C36.6004 24.1101 36.703 24.2124 36.703 24.3335V25.376C36.703 25.8097 37.0041 26.1852 37.4276 26.2795C38.3084 26.4757 39.1487 26.8221 39.9252 27.3093C40.2901 27.5381 40.765 27.4852 41.0705 27.181L41.8253 26.4291C41.8765 26.3776 41.9372 26.3668 41.9791 26.3667H41.9794C42.0147 26.3667 42.0816 26.3752 42.1376 26.4312L43.3211 27.614C43.3771 27.67 43.3854 27.7368 43.3854 27.7717C43.3853 27.8134 43.3745 27.8738 43.32 27.9279L42.5709 28.6793C42.2658 28.9852 42.213 29.4615 42.4435 29.8268C42.9227 30.5866 43.2675 31.4187 43.4684 32.2997C43.5644 32.7209 43.9389 33.0197 44.371 33.0197H45.4245C45.5438 33.0197 45.6485 33.123 45.6485 33.2405V34.9171Z" fill="#CCEDE9"/>
<path d="M35.6758 28.425C32.5564 28.425 30.0186 30.9618 30.0186 34.0798C30.0186 37.1964 32.5564 39.732 35.6758 39.732C38.7939 39.732 41.3305 37.1965 41.3305 34.0798C41.3305 30.9619 38.7939 28.425 35.6758 28.425ZM35.6758 37.8806C33.5773 37.8806 31.87 36.1755 31.87 34.0798C31.87 31.9826 33.5773 30.2765 35.6758 30.2765C37.7729 30.2765 39.4791 31.9826 39.4791 34.0798C39.4791 36.1755 37.7728 37.8806 35.6758 37.8806Z" fill="#CCEDE9"/>
<path d="M14.403 35.1378H14.3848C13.8736 35.1378 13.4591 35.5523 13.4591 36.0635C13.4591 36.5747 13.8736 36.9892 14.3848 36.9892H14.403C14.9142 36.9892 15.3287 36.5747 15.3287 36.0635C15.3287 35.5523 14.9142 35.1378 14.403 35.1378Z" fill="#CCEDE9"/>
</g>
<defs>
<clipPath id="clip0_3015_9878">
<rect width="47" height="47" fill="white" transform="translate(0.5)"/>
</clipPath>
</defs>
</svg>
