<svg width="30" height="52" viewBox="0 0 30 52" fill="none" xmlns="http://www.w3.org/2000/svg">
<path d="M19.2188 4.0625H20.9062V5.75H19.2188V4.0625Z" fill="#CCEDE9"/>
<path d="M5.71875 26.8438H9.09375V28.5312H5.71875V26.8438Z" fill="#CCEDE9"/>
<path d="M24.2812 0.6875H5.71875C4.3765 0.68884 3.08961 1.22264 2.1405 2.17175C1.19139 3.12086 0.65759 4.40775 0.65625 5.75V46.25C0.65759 47.5922 1.19139 48.8791 2.1405 49.8282C3.08961 50.7774 4.3765 51.3112 5.71875 51.3125H24.2812C25.6235 51.3112 26.9104 50.7774 27.8595 49.8282C28.8086 48.8791 29.3424 47.5922 29.3438 46.25V5.75C29.3424 4.40775 28.8086 3.12086 27.8595 2.17175C26.9104 1.22264 25.6235 0.68884 24.2812 0.6875ZM24.2812 49.625H5.71875C4.82364 49.625 3.9652 49.2694 3.33227 48.6365C2.69933 48.0035 2.34375 47.1451 2.34375 46.25V9.125H25.9688V7.4375H2.34375V5.75C2.34375 4.85489 2.69933 3.99645 3.33227 3.36351C3.9652 2.73058 4.82364 2.375 5.71875 2.375H24.2812C25.1764 2.375 26.0348 2.73058 26.6677 3.36351C27.3007 3.99645 27.6562 4.85489 27.6562 5.75V41.1875H4.03125V42.875H27.6562V46.25C27.6562 47.1451 27.3007 48.0035 26.6677 48.6365C26.0348 49.2694 25.1764 49.625 24.2812 49.625Z" fill="#CCEDE9"/>
<path d="M15 43.7188C14.4994 43.7188 14.01 43.8672 13.5937 44.1453C13.1775 44.4235 12.853 44.8188 12.6614 45.2813C12.4698 45.7439 12.4197 46.2528 12.5174 46.7438C12.6151 47.2348 12.8561 47.6859 13.2101 48.0399C13.5641 48.3939 14.0152 48.6349 14.5062 48.7326C14.9972 48.8303 15.5061 48.7802 15.9687 48.5886C16.4312 48.397 16.8265 48.0725 17.1047 47.6563C17.3828 47.24 17.5313 46.7506 17.5313 46.25C17.5313 45.5787 17.2646 44.9348 16.7899 44.4601C16.3152 43.9854 15.6713 43.7188 15 43.7188ZM15 47.0938C14.8331 47.0938 14.67 47.0443 14.5312 46.9516C14.3925 46.8588 14.2843 46.7271 14.2205 46.5729C14.1566 46.4187 14.1399 46.2491 14.1725 46.0854C14.205 45.9217 14.2854 45.7714 14.4034 45.6534C14.5214 45.5354 14.6717 45.455 14.8354 45.4225C14.9991 45.3899 15.1687 45.4066 15.3229 45.4705C15.4771 45.5343 15.6088 45.6425 15.7016 45.7812C15.7943 45.92 15.8438 46.0831 15.8438 46.25C15.8438 46.4738 15.7549 46.6884 15.5966 46.8466C15.4384 47.0049 15.2238 47.0938 15 47.0938Z" fill="#CCEDE9"/>
<path d="M12.4688 4.0625H17.5312V5.75H12.4688V4.0625Z" fill="#CCEDE9"/>
<path d="M11.3775 21.1847L8.59901 18.4062L11.3775 15.6278L10.1844 14.4347L6.21289 18.4062L10.1844 22.3778L11.3775 21.1847Z" fill="#CCEDE9"/>
<path d="M19.8153 22.3778L23.7868 18.4062L19.8153 14.4347L18.6222 15.6278L21.4007 18.4062L18.6222 21.1847L19.8153 22.3778Z" fill="#CCEDE9"/>
<path d="M11.793 21.9568L16.361 14.0449L17.8224 14.8887L13.2543 22.8005L11.793 21.9568Z" fill="#CCEDE9"/>
<path d="M10.7812 26.8438H24.2812V28.5312H10.7812V26.8438Z" fill="#CCEDE9"/>
<path d="M5.71875 30.2188H24.2812V31.9062H5.71875V30.2188Z" fill="#CCEDE9"/>
<path d="M5.71875 33.5938H24.2812V35.2812H5.71875V33.5938Z" fill="#CCEDE9"/>
</svg>
