<svg width="41" height="40" viewBox="0 0 41 40" fill="none" xmlns="http://www.w3.org/2000/svg">
<path d="M34.2376 31.217L28.8324 25.8119C30.4706 23.6674 31.369 21.0663 31.3694 18.3215C31.3694 15.0138 30.0811 11.9039 27.7418 9.56501C25.403 7.22615 22.2934 5.9379 18.9853 5.9379C15.6776 5.9379 12.5677 7.22615 10.2288 9.56501C5.40053 14.3937 5.40053 22.2502 10.2288 27.078C12.5677 29.4173 15.6776 30.7056 18.9853 30.7056C21.7301 30.7052 24.3312 29.8068 26.4757 28.1686L31.8808 33.5738C32.206 33.8993 32.6328 34.0621 33.0592 34.0621C33.4857 34.0621 33.9125 33.8993 34.2376 33.5738C34.8887 32.9232 34.8887 31.8677 34.2376 31.217ZM12.5856 24.7213C9.05695 21.1926 9.05735 15.4508 12.5856 11.9218C14.295 10.2128 16.5679 9.27123 18.9853 9.27123C21.4031 9.27123 23.6757 10.2128 25.3851 11.9218C27.0945 13.6312 28.036 15.9041 28.036 18.3215C28.036 20.7393 27.0945 23.0119 25.3851 24.7213C23.6757 26.4307 21.4031 27.3722 18.9853 27.3722C16.5679 27.3722 14.295 26.4307 12.5856 24.7213Z" fill="#66CABE"/>
</svg>
