<svg width="50" height="50" viewBox="0 0 50 50" fill="none" xmlns="http://www.w3.org/2000/svg">
<path d="M35.2432 8.61016V14.0532C35.2432 14.2937 35.1192 14.5119 34.9196 14.6227C34.5404 14.8333 34.1185 14.4409 34.0917 14.4153C33.8062 14.133 33.3457 14.1332 33.0602 14.4169C32.7732 14.7021 32.7718 15.166 33.0571 15.453C33.3697 15.7677 33.9749 16.1563 34.6803 16.1563C34.9838 16.1563 35.3057 16.0844 35.6309 15.9038C36.2956 15.5348 36.7086 14.8257 36.7086 14.0531V8.61016C36.7086 8.20547 36.3805 7.87744 35.9758 7.87744C35.5712 7.87744 35.2432 8.20547 35.2432 8.61016Z" fill="#008576"/>
<path d="M41.4297 14.7001C40.737 14.7001 40.0695 14.4197 39.644 13.9502C39.3723 13.6504 38.9089 13.6276 38.609 13.8992C38.3092 14.1709 38.2864 14.6343 38.5581 14.9342C39.2567 15.7052 40.3302 16.1654 41.4297 16.1654C42.7882 16.1654 43.9285 15.3024 44.1408 14.1132C44.2999 13.2224 43.8903 12.0566 42.2636 11.4566C41.4264 11.1479 40.6483 10.8112 40.4268 10.7142C40.2626 10.5874 40.1836 10.3896 40.2143 10.1757C40.234 10.0383 40.3323 9.70284 40.8178 9.55665C41.8172 9.25567 42.7316 9.98468 42.7516 10.0008C43.0613 10.2581 43.521 10.2172 43.7805 9.9086C44.0409 9.59884 44.0009 9.13663 43.6912 8.87628C43.6298 8.82472 42.1687 7.61944 40.3952 8.15362C39.5113 8.41983 38.8862 9.11495 38.7637 9.96749C38.6493 10.765 38.9948 11.5322 39.6657 11.9696C39.698 11.9907 39.732 12.0093 39.7672 12.025C39.8058 12.0422 40.7231 12.4505 41.7563 12.8316C42.0735 12.9485 42.8003 13.2825 42.698 13.8557C42.6241 14.2707 42.1293 14.7001 41.4297 14.7001Z" fill="#008576"/>
<path d="M15.1107 20.6214C14.706 20.6214 14.378 20.9494 14.378 21.3541V27.9906C14.378 28.3953 14.706 28.7234 15.1107 28.7234C15.5154 28.7234 15.8434 28.3953 15.8434 27.9906V25.2912H18.9707V27.9906C18.9707 28.3953 19.2987 28.7234 19.7034 28.7234C20.1081 28.7234 20.4361 28.3953 20.4361 27.9906V21.3541C20.4361 20.9494 20.1081 20.6214 19.7034 20.6214C19.2987 20.6214 18.9707 20.9494 18.9707 21.3541V23.8259H15.8434V21.3541C15.8434 20.9494 15.5154 20.6214 15.1107 20.6214Z" fill="#008576"/>
<path d="M9.32973 27.9906V25.8366C9.72523 25.8346 10.1873 25.8324 10.445 25.8324C11.9019 25.8324 13.0871 24.6636 13.0871 23.2269C13.0871 21.7902 11.9019 20.6214 10.445 20.6214H8.59701C8.20326 20.6136 7.85746 20.9611 7.8643 21.3541V27.9906C7.8643 28.3953 8.19232 28.7234 8.59701 28.7234C9.0017 28.7234 9.32973 28.3953 9.32973 27.9906ZM10.445 22.0868C11.0829 22.0868 11.6217 22.6089 11.6217 23.227C11.6217 23.845 11.0828 24.3671 10.445 24.3671C10.1892 24.3671 9.73275 24.3692 9.33861 24.3712C9.33656 23.9647 9.33314 22.5119 9.33197 22.0868H10.445Z" fill="#008576"/>
<path d="M23.8443 27.9906V25.8366C24.2398 25.8346 24.7019 25.8324 24.9595 25.8324C26.4165 25.8324 27.6017 24.6636 27.6017 23.2269C27.6017 21.7902 26.4165 20.6214 24.9595 20.6214H23.1116C22.7178 20.6136 22.372 20.9611 22.3789 21.3541V27.9906C22.3789 28.3953 22.7069 28.7234 23.1116 28.7234C23.5164 28.7234 23.8443 28.3953 23.8443 27.9906ZM24.9596 22.0868C25.5975 22.0868 26.1364 22.6089 26.1364 23.227C26.1364 23.845 25.5974 24.3671 24.9596 24.3671C24.7039 24.3671 24.2474 24.3692 23.8533 24.3712C23.8512 23.9647 23.8478 22.5119 23.8467 22.0868H24.9596Z" fill="#008576"/>
<path d="M38.9062 26.8621H34.7629C34.9066 26.1441 34.9805 25.4109 34.9805 24.6723C34.9805 23.9399 34.9085 23.224 34.7723 22.5309C36.0555 23.0279 37.4325 23.288 38.8171 23.288C40.7682 23.288 42.6891 22.7772 44.3719 21.8108C44.7228 21.6092 44.8439 21.1614 44.6424 20.8105C44.441 20.4595 43.9932 20.3386 43.6422 20.54C42.1811 21.379 40.5127 21.8226 38.8172 21.8226C37.2416 21.8226 35.6775 21.4366 34.2942 20.7064C34.2755 20.6964 34.2563 20.6879 34.2371 20.6798C33.3432 18.3704 31.698 16.4324 29.6026 15.1676C29.2785 14.1874 29.1136 13.162 29.1136 12.1191C29.1136 6.76847 33.4666 2.41544 38.8172 2.41544C44.1679 2.41544 48.5209 6.76847 48.5209 12.1191C48.5209 14.4587 47.6767 16.7184 46.1439 18.4818C45.8784 18.7872 45.9107 19.2499 46.2163 19.5154C46.3549 19.636 46.5261 19.6951 46.6966 19.6951C46.9013 19.6951 47.105 19.6098 47.2499 19.4431C49.0145 17.4129 49.9863 14.8118 49.9863 12.119C49.9863 5.96036 44.9759 0.950012 38.8173 0.950012C32.6588 0.950012 27.6484 5.96036 27.6484 12.119C27.6484 12.8615 27.7217 13.5965 27.8655 14.3166C26.6298 13.8402 25.2885 13.5783 23.887 13.5783H11.0939C9.05026 13.5783 7.0528 14.1388 5.31744 15.1991C4.97213 15.4101 4.86324 15.861 5.07418 16.2064C5.28522 16.5517 5.73619 16.6605 6.08141 16.4496C7.58668 15.5299 9.31998 15.0438 11.0939 15.0438H23.8867C29.1959 15.0438 33.5152 19.3631 33.5152 24.6722C33.5152 25.4131 33.4299 26.1475 33.2638 26.8619H31.563C26.726 26.8619 22.6029 29.9739 21.0887 34.3006H11.0939C5.78483 34.3006 1.46549 29.9813 1.46549 24.6722C1.46549 22.421 2.25846 20.2313 3.6985 18.5062C3.95778 18.1955 3.91617 17.7334 3.60543 17.4741C3.29489 17.215 2.83287 17.2565 2.5735 17.5671C0.914026 19.5554 6.10352e-05 22.0786 6.10352e-05 24.6724C6.10352e-05 30.7895 4.97672 35.7662 11.0939 35.7662H20.6867C20.5443 36.4744 20.4692 37.2066 20.4692 37.9561C20.4692 44.0732 25.4459 49.0499 31.563 49.0499H32.121C32.5256 49.0499 32.8537 48.7219 32.8537 48.3172C32.8537 47.9125 32.5256 47.5845 32.121 47.5845H31.563C26.254 47.5845 21.9346 43.2651 21.9346 37.9561C21.9346 32.647 26.254 28.3276 31.563 28.3276H38.9063C44.2154 28.3276 48.5347 32.647 48.5347 37.9562C48.5347 43.2652 44.2154 47.5846 38.9063 47.5846H35.7823C35.3776 47.5846 35.0496 47.9126 35.0496 48.3173C35.0496 48.722 35.3776 49.05 35.7823 49.05H38.9063C45.0235 49.05 50.0002 44.0733 50.0002 37.9562C50.0002 31.839 45.0234 26.8621 38.9062 26.8621Z" fill="#008576"/>
<path d="M35.7826 39.61C35.3779 39.61 35.0499 39.938 35.0499 40.3427C35.0499 40.7474 35.3779 41.0754 35.7826 41.0754H37.088L36.416 44.3084C36.3337 44.7045 36.5879 45.0924 36.9842 45.1749C37.0345 45.1853 37.0847 45.1903 37.1341 45.1903C37.474 45.1903 37.7789 44.9524 37.8507 44.6066L38.5847 41.0754H40.0024L39.3303 44.3084C39.248 44.7045 39.5023 45.0924 39.8986 45.1749C39.9489 45.1853 39.9991 45.1903 40.0485 45.1903C40.3883 45.1903 40.6932 44.9524 40.7651 44.6066L41.4991 41.0754H43.1219C43.5266 41.0754 43.8546 40.7474 43.8546 40.3427C43.8546 39.938 43.5266 39.61 43.1219 39.61H41.8037L42.389 36.7941H44.0073C44.412 36.7941 44.74 36.4661 44.74 36.0614C44.74 35.6567 44.412 35.3287 44.0073 35.3287H42.6937L43.3514 32.1645C43.4338 31.7683 43.1795 31.3804 42.7832 31.298C42.3869 31.2157 41.999 31.4701 41.9168 31.8663L41.197 35.3287H39.7794L40.4371 32.1645C40.5194 31.7683 40.2651 31.3804 39.8688 31.298C39.4728 31.2157 39.0846 31.4701 39.0024 31.8663L38.2827 35.3287H36.6678C36.2631 35.3287 35.9351 35.6567 35.9351 36.0614C35.9351 36.4661 36.2631 36.7941 36.6678 36.7941H37.978L37.3926 39.61H35.7826ZM39.4747 36.7941H40.8923L40.307 39.61H38.8893L39.4747 36.7941Z" fill="#008576"/>
<path d="M33.4516 40.0598C33.1413 39.7997 32.6792 39.8405 32.4194 40.1505C32.3585 40.2231 32.2927 40.291 32.2238 40.3524C31.8704 40.667 31.4208 40.8266 30.8874 40.8266C29.4592 40.8266 28.2973 39.6647 28.2973 38.2364C28.2973 36.8082 29.4592 35.6463 30.8874 35.6463C31.4066 35.6463 31.9072 35.7991 32.335 36.0882C32.6703 36.3148 33.1257 36.2265 33.3524 35.8913C33.5788 35.5561 33.4908 35.1005 33.1555 34.8739C32.4844 34.4205 31.7001 34.1809 30.8874 34.1809C28.6512 34.1809 26.832 36.0002 26.832 38.2363C26.832 40.4726 28.6512 42.2919 30.8874 42.2919C31.7785 42.2919 32.5775 41.9996 33.1983 41.4466C33.3202 41.3382 33.4359 41.2189 33.5422 41.0919C33.8023 40.782 33.7617 40.3198 33.4516 40.0598Z" fill="#008576"/>
</svg>
