<svg width="49" height="48" viewBox="0 0 49 48" fill="none" xmlns="http://www.w3.org/2000/svg">
<path d="M33.8828 28.1378C33.6239 27.6895 33.0505 27.5357 32.6021 27.7947C32.1537 28.0535 32.0001 28.6269 32.259 29.0753L33.9009 31.9192L30.8062 40.5845H18.2761L15.1813 31.9192L23.6035 17.3314V23.5153C23.6035 24.0331 24.0233 24.4528 24.541 24.4528C25.0587 24.4528 25.4785 24.0331 25.4785 23.5153V17.3314L28.5089 22.5801C28.7678 23.0285 29.3412 23.1822 29.7895 22.9232C30.2379 22.6644 30.3916 22.0909 30.1327 21.6426L25.3529 13.3638C25.0211 12.7485 24.0609 12.7486 23.7292 13.3638L13.3406 31.3573C13.203 31.5956 13.1771 31.8823 13.2697 32.1413L16.2849 40.5844H14.8451C14.3274 40.5844 13.9076 41.0042 13.9076 41.5219V47.0626C13.9076 47.5803 14.3274 48.0001 14.8451 48.0001H34.237C34.7547 48.0001 35.1745 47.5803 35.1745 47.0626V41.522C35.1745 41.0042 34.7547 40.5845 34.237 40.5845H32.797L35.8125 32.1414C35.905 31.8823 35.8792 31.5956 35.7415 31.3574L33.8828 28.1378ZM33.2995 46.1251H15.7827V42.4595H17.6083C17.6107 42.4595 17.613 42.4598 17.6154 42.4598C17.6176 42.4598 17.6198 42.4595 17.6219 42.4595H31.4604C31.4625 42.4595 31.4647 42.4598 31.4668 42.4598C31.4692 42.4598 31.4715 42.4595 31.4739 42.4595H33.2996V46.1251H33.2995Z" fill="#008576"/>
<path d="M31.1963 26.2964C31.7141 26.2964 32.1338 25.8767 32.1338 25.3589C32.1338 24.8411 31.7141 24.4214 31.1963 24.4214C30.6785 24.4214 30.2588 24.8411 30.2588 25.3589C30.2588 25.8767 30.6785 26.2964 31.1963 26.2964Z" fill="#008576"/>
<path d="M20.833 31.826C20.833 33.8705 22.4962 35.5337 24.5407 35.5337C26.5852 35.5337 28.2485 33.8704 28.2485 31.826C28.2485 29.7815 26.5852 28.1182 24.5407 28.1182C22.4962 28.1182 20.833 29.7815 20.833 31.826ZM26.3734 31.826C26.3734 32.8365 25.5513 33.6587 24.5406 33.6587C23.5301 33.6587 22.7079 32.8365 22.7079 31.826C22.7079 30.8154 23.5301 29.9932 24.5406 29.9932C25.5514 29.9932 26.3734 30.8154 26.3734 31.826Z" fill="#008576"/>
<path d="M44.7922 7.41609C46.8367 7.41609 48.5 5.75278 48.5 3.70828C48.5 1.66378 46.8367 0.0005625 44.7922 0.0005625C43.0715 0.0005625 41.6212 1.17881 41.2048 2.77078H28.2489V0.9375C28.2489 0.419719 27.8291 0 27.3114 0H21.7709C21.2533 0 20.8334 0.419719 20.8334 0.9375V2.76947H7.79478C7.37797 1.17816 5.92794 0.0005625 4.20781 0.0005625C2.16331 0.0005625 0.5 1.66388 0.5 3.70828C0.5 5.75269 2.16331 7.41609 4.20781 7.41609C5.92897 7.41609 7.37975 6.23709 7.79553 4.64437H14.5048C9.86609 7.212 6.71797 12.1568 6.71797 17.8237V19.8074H4.88525C4.36747 19.8074 3.94775 20.2271 3.94775 20.7449V26.2854C3.94775 26.8032 4.36747 27.2229 4.88525 27.2229H10.4258C10.9435 27.2229 11.3633 26.8032 11.3633 26.2854V20.7449C11.3633 20.2271 10.9435 19.8074 10.4258 19.8074H8.59297V17.8237C8.59297 10.8726 14.0029 5.16197 20.8333 4.67953V6.47803C20.8333 6.99581 21.2532 7.41553 21.7708 7.41553H27.3114C27.8291 7.41553 28.2489 6.99581 28.2489 6.47803V4.67953C35.0792 5.16197 40.4892 10.8726 40.4892 17.8237V19.8074H38.6564C38.1388 19.8074 37.7189 20.2271 37.7189 20.7449V26.2854C37.7189 26.8032 38.1388 27.2229 38.6564 27.2229H44.197C44.7147 27.2229 45.1345 26.8032 45.1345 26.2854V20.7449C45.1345 20.2271 44.7147 19.8074 44.197 19.8074H42.3642V17.8237C42.3642 12.1578 39.2172 7.21378 34.5797 4.64578H41.2048C41.6212 6.23775 43.0715 7.41609 44.7922 7.41609ZM9.48828 25.3479H5.82275V21.6824H7.64459C7.64825 21.6825 7.65181 21.683 7.65547 21.683C7.65912 21.683 7.66269 21.6825 7.66634 21.6824H9.48828V25.3479ZM43.2596 25.3479H39.594V21.6824H41.4159C41.4195 21.6825 41.4231 21.683 41.4268 21.683C41.4304 21.683 41.434 21.6825 41.4376 21.6824H43.2596V25.3479ZM44.7922 1.87556C45.8028 1.87556 46.625 2.69775 46.625 3.70828C46.625 4.71881 45.8028 5.54109 44.7922 5.54109C43.7817 5.54109 42.9595 4.71891 42.9595 3.70828C42.9595 2.69766 43.7817 1.87556 44.7922 1.87556ZM4.20781 5.54109C3.19719 5.54109 2.375 4.71891 2.375 3.70828C2.375 2.69766 3.19719 1.87556 4.20781 1.87556C5.21834 1.87556 6.04053 2.69775 6.04053 3.70828C6.04053 4.71881 5.21834 5.54109 4.20781 5.54109ZM26.3739 5.54053H22.7084V1.875H26.374V5.54053H26.3739Z" fill="#008576"/>
</svg>
