<svg width="47" height="46" viewBox="0 0 47 46" fill="none" xmlns="http://www.w3.org/2000/svg">
<path d="M36.5282 4.44727H19.0455C18.5801 4.44727 18.2032 4.82419 18.2032 5.28955C18.2032 5.75465 18.5801 6.13184 19.0455 6.13184H36.5282C36.9933 6.13184 37.3705 5.75465 37.3705 5.28955C37.3705 4.82419 36.9933 4.44727 36.5282 4.44727Z" fill="#E5F6F4"/>
<path d="M9.90875 4.44727C9.68739 4.44727 9.46998 4.53729 9.31336 4.6939C9.15675 4.85051 9.06647 5.06819 9.06647 5.28955C9.06647 5.51092 9.15675 5.72833 9.31336 5.88494C9.46998 6.04156 9.68739 6.13184 9.90875 6.13184C10.1301 6.13184 10.3478 6.04156 10.5044 5.88494C10.661 5.72833 10.751 5.51092 10.751 5.28955C10.751 5.06819 10.661 4.85051 10.5044 4.6939C10.3478 4.53729 10.1301 4.44727 9.90875 4.44727Z" fill="#E5F6F4"/>
<path d="M6.81403 4.44727C6.59266 4.44727 6.37525 4.53729 6.21864 4.6939C6.06202 4.85051 5.97174 5.06819 5.97174 5.28955C5.97174 5.51092 6.06202 5.72833 6.21864 5.88494C6.37525 6.04156 6.59266 6.13184 6.81403 6.13184C7.03539 6.13184 7.25307 6.04156 7.40968 5.88494C7.5663 5.72833 7.65631 5.51092 7.65631 5.28955C7.65631 5.06819 7.5663 4.85051 7.40968 4.6939C7.25307 4.53729 7.03539 4.44727 6.81403 4.44727Z" fill="#E5F6F4"/>
<path d="M13.0045 4.44727C12.7821 4.44727 12.5657 4.53729 12.4091 4.6939C12.2515 4.85051 12.1622 5.06819 12.1622 5.28955C12.1622 5.51092 12.2515 5.72833 12.4091 5.88494C12.5657 6.04156 12.7821 6.13184 13.0045 6.13184C13.2259 6.13184 13.4425 6.04156 13.6002 5.88494C13.7568 5.72833 13.8468 5.51092 13.8468 5.28955C13.8468 5.06819 13.7568 4.85051 13.6002 4.6939C13.4425 4.53729 13.2259 4.44727 13.0045 4.44727Z" fill="#E5F6F4"/>
<path d="M18.1812 33.1634C18.0246 33.0065 17.8069 32.9165 17.5855 32.9165C17.3641 32.9165 17.1467 33.0065 16.9901 33.1634C16.8335 33.32 16.7432 33.5372 16.7432 33.7588C16.7432 33.9804 16.8335 34.1976 16.9901 34.3542C17.1467 34.5108 17.3641 34.6011 17.5855 34.6011C17.8069 34.6011 18.0246 34.5108 18.1812 34.3542C18.3378 34.1976 18.4278 33.9804 18.4278 33.7588C18.4278 33.5364 18.3378 33.32 18.1812 33.1634Z" fill="#E5F6F4"/>
<path d="M41.546 24.171C41.5473 24.1518 41.5486 24.1331 41.5486 24.1136V4.27881C41.5486 2.69953 40.2641 1.41504 38.6848 1.41504H4.65668C3.07766 1.41504 1.79291 2.69953 1.79291 4.27881V31.7371C1.79291 33.3164 3.07766 34.6009 4.65668 34.6009H14.343C14.8083 34.6009 15.1853 34.2237 15.1853 33.7586C15.1853 33.2935 14.8083 32.9163 14.343 32.9163H4.65668C4.00654 32.9163 3.47748 32.3875 3.47748 31.7371V9.16382C3.4809 9.16382 3.4838 9.16408 3.48669 9.16408H39.864V22.4854L35.1685 17.7899C34.58 17.2013 33.7974 16.8773 32.9652 16.8773C32.1326 16.8773 31.3498 17.2013 30.7613 17.7899C30.3675 18.1834 30.0924 18.664 29.9529 19.1883C29.5028 18.9438 28.9964 18.8141 28.4697 18.8141C27.6372 18.8141 26.8549 19.1386 26.2663 19.7271C25.6328 20.3602 25.3296 21.2006 25.3564 22.0324C25.3222 22.0311 25.288 22.0303 25.2535 22.0303C24.4212 22.0303 23.6384 22.3548 23.0499 22.9434C22.6919 23.3013 22.4316 23.7314 22.2826 24.2007L18.1675 20.0859C16.9525 18.8706 14.9755 18.8706 13.7602 20.0859C12.5452 21.3009 12.5452 23.2779 13.7602 24.4929L24.5478 35.2805L22.3394 34.7449C20.6214 34.3279 18.9163 35.3389 18.4591 37.0472C18.0235 38.672 18.9266 40.3782 20.5151 40.9322L28.9388 43.8695C30.2188 44.3156 31.5548 44.5401 32.8949 44.5401C33.7932 44.5401 34.6926 44.4393 35.5781 44.2366C37.7846 43.7315 39.7964 42.6189 41.3967 41.0186C46.0332 36.3821 46.0827 28.8694 41.546 24.171ZM3.48669 7.47951C3.4838 7.47951 3.4809 7.47977 3.47748 7.47977V4.27881C3.47748 3.62867 4.00654 3.09961 4.65668 3.09961H38.6851C39.3352 3.09961 39.8643 3.62867 39.8643 4.27881V7.47951H3.48669ZM40.2057 39.8275C37.4193 42.6139 33.2144 43.576 29.4936 42.2786L21.0694 39.3416C20.3098 39.0766 19.8779 38.2604 20.0861 37.4833C20.2716 36.79 20.8865 36.337 21.5703 36.337C21.693 36.337 21.8178 36.3515 21.9423 36.3818L27.0665 37.625C27.4332 37.7144 27.8146 37.5484 27.9991 37.2191C28.1841 36.8901 28.1275 36.4781 27.8606 36.211L14.9513 23.3019C14.393 22.7436 14.393 21.8352 14.9513 21.277C15.5098 20.7189 16.4182 20.7189 16.9764 21.277L23.0501 27.3506C23.0501 27.3509 23.0504 27.3509 23.0504 27.3512L27.4197 31.7205C27.5843 31.8848 27.7998 31.9669 28.0154 31.9669C28.2307 31.9669 28.4465 31.8848 28.6111 31.7205C28.9398 31.3915 28.9398 30.8582 28.6111 30.5292L24.2417 26.1598C24.2414 26.1596 24.2414 26.1596 24.2412 26.1596C23.9706 25.889 23.8219 25.5295 23.8219 25.1467C23.8219 24.7645 23.9706 24.4047 24.2412 24.1344C24.5115 23.8638 24.8713 23.7148 25.2538 23.7148C25.6362 23.7148 25.9958 23.8638 26.2663 24.1344L30.8634 28.7312C31.0279 28.8957 31.2432 28.9778 31.4588 28.9778C31.6743 28.9778 31.8899 28.8957 32.0544 28.7312C32.3834 28.4024 32.3834 27.8692 32.0544 27.5401L27.4577 22.9431C26.8994 22.3846 26.8994 21.4762 27.4577 20.9182C27.728 20.6479 28.0878 20.4986 28.47 20.4986C28.8524 20.4986 29.212 20.6479 29.4823 20.9182L30.761 22.1969C30.7613 22.1969 30.7613 22.1972 30.7615 22.1972L34.1215 25.5571C34.286 25.7216 34.5015 25.8037 34.7171 25.8037C34.9327 25.8037 35.1485 25.7216 35.3125 25.5571C35.6415 25.2283 35.6415 24.6951 35.3125 24.366L31.9526 21.0058C31.6822 20.7355 31.5333 20.376 31.5333 19.9933C31.5333 19.6108 31.6822 19.2515 31.9526 18.9809C32.2232 18.7106 32.5827 18.5614 32.9652 18.5614C33.3476 18.5614 33.7074 18.7106 33.9777 18.9809L40.2062 25.2089C44.236 29.2395 44.236 35.7969 40.2057 39.8275Z" fill="#E5F6F4"/>
<path d="M16.5108 16.741V14.9274C16.5108 14.4623 16.1339 14.0851 15.6685 14.0851C15.2034 14.0851 14.8262 14.4623 14.8262 14.9274V16.741C14.8262 17.2063 15.2034 17.5833 15.6685 17.5833C16.1339 17.5833 16.5108 17.2063 16.5108 16.741Z" fill="#E5F6F4"/>
<path d="M8.51038 21.2433C8.04528 21.2433 7.66809 21.6205 7.66809 22.0856C7.66809 22.5509 8.04528 22.9279 8.51038 22.9279H10.3239C10.7893 22.9279 11.1662 22.5509 11.1662 22.0856C11.1662 21.6205 10.7893 21.2433 10.3239 21.2433H8.51038Z" fill="#E5F6F4"/>
<path d="M11.9702 19.2289C12.1858 19.2289 12.4011 19.1465 12.5656 18.982C12.8946 18.6533 12.8946 18.12 12.5656 17.791L9.41834 14.6437C9.08932 14.3147 8.55605 14.3147 8.22729 14.6437C7.89828 14.9722 7.89828 15.5058 8.22729 15.8348L11.3746 18.982C11.5391 19.1465 11.7546 19.2289 11.9702 19.2289Z" fill="#E5F6F4"/>
</svg>
