<svg width="34" height="46" viewBox="0 0 34 46" fill="none" xmlns="http://www.w3.org/2000/svg">
<path d="M29.375 31.7975V4.79167C29.375 3.52084 28.8702 2.30206 27.9716 1.40345C27.0729 0.504835 25.8542 0 24.5833 0L5.41667 0C4.14584 0 2.92706 0.504835 2.02845 1.40345C1.12983 2.30206 0.625 3.52084 0.625 4.79167V41.2083C0.625 41.8376 0.74894 42.4607 0.989744 43.042C1.23055 43.6234 1.5835 44.1516 2.02845 44.5966C2.47339 45.0415 3.00162 45.3945 3.58298 45.6353C4.16433 45.8761 4.78742 46 5.41667 46C17.7696 46 17.2425 46.1438 17.645 45.6646C18.5075 44.6488 17.4246 44.2175 11.7513 39.3683C11.643 39.2764 11.5594 39.1588 11.5082 39.0263C11.4569 38.8939 11.4395 38.7507 11.4576 38.6098C11.4757 38.4689 11.5287 38.3347 11.6117 38.2195C11.6948 38.1043 11.8054 38.0117 11.9333 37.95C12.3646 37.7296 12.2017 37.7679 16.61 39.2438C16.7544 39.2925 16.9083 39.3061 17.059 39.2835C17.2097 39.2609 17.3528 39.2027 17.4765 39.1136C17.6002 39.0246 17.7008 38.9074 17.7701 38.7717C17.8394 38.636 17.8754 38.4857 17.875 38.3333V25.875C17.875 25.6208 17.976 25.3771 18.1557 25.1974C18.3354 25.0176 18.5792 24.9167 18.8333 24.9167C19.0875 24.9167 19.3313 25.0176 19.511 25.1974C19.6907 25.3771 19.7917 25.6208 19.7917 25.875V36.4167C19.7917 36.6708 19.8926 36.9146 20.0724 37.0943C20.2521 37.274 20.4958 37.375 20.75 37.375C21.0042 37.375 21.2479 37.274 21.4276 37.0943C21.6074 36.9146 21.7083 36.6708 21.7083 36.4167V32.5833C21.7083 32.3292 21.8093 32.0854 21.989 31.9057C22.1687 31.726 22.4125 31.625 22.6667 31.625C22.9208 31.625 23.1646 31.726 23.3443 31.9057C23.524 32.0854 23.625 32.3292 23.625 32.5833V36.4167C23.625 36.6708 23.726 36.9146 23.9057 37.0943C24.0854 37.274 24.3292 37.375 24.5833 37.375C24.8375 37.375 25.0813 37.274 25.261 37.0943C25.4407 36.9146 25.5417 36.6708 25.5417 36.4167V33.5417C25.5417 33.2875 25.6426 33.0437 25.8224 32.864C26.0021 32.6843 26.2458 32.5833 26.5 32.5833C26.7542 32.5833 26.9979 32.6843 27.1776 32.864C27.3574 33.0437 27.4583 33.2875 27.4583 33.5417V36.4167C27.4583 36.6708 27.5593 36.9146 27.739 37.0943C27.9187 37.274 28.1625 37.375 28.4167 37.375C28.6708 37.375 28.9146 37.274 29.0943 37.0943C29.274 36.9146 29.375 36.6708 29.375 36.4167V34.5C29.375 34.2458 29.476 34.0021 29.6557 33.8224C29.8354 33.6426 30.0792 33.5417 30.3333 33.5417C30.5875 33.5417 30.8313 33.6426 31.011 33.8224C31.1907 34.0021 31.2917 34.2458 31.2917 34.5V45.0417C31.2917 45.2958 31.3926 45.5396 31.5724 45.7193C31.7521 45.899 31.9958 46 32.25 46C32.5042 46 32.7479 45.899 32.9276 45.7193C33.1074 45.5396 33.2083 45.2958 33.2083 45.0417V34.5C33.207 34.0407 33.0958 33.5885 32.8838 33.1811C32.6718 32.7736 32.3653 32.4229 31.9899 32.1583C31.6146 31.8937 31.1813 31.7228 30.7263 31.6601C30.2714 31.5973 29.808 31.6444 29.375 31.7975ZM2.54167 4.79167C2.54167 4.02917 2.84457 3.2979 3.38373 2.75873C3.9229 2.21957 4.65417 1.91667 5.41667 1.91667H24.5833C25.3458 1.91667 26.0771 2.21957 26.6163 2.75873C27.1554 3.2979 27.4583 4.02917 27.4583 4.79167V5.75H2.54167V4.79167ZM14.3196 44.0833H5.41667C4.65417 44.0833 3.9229 43.7804 3.38373 43.2413C2.84457 42.7021 2.54167 41.9708 2.54167 41.2083V40.25H10.0071C10.3138 40.7196 10.1317 40.5088 14.3196 44.0833ZM25.0913 31.05C24.7426 30.5014 24.2183 30.0871 23.6039 29.8748C22.9895 29.6624 22.3213 29.6646 21.7083 29.8808V25.875C21.7083 25.1125 21.4054 24.3812 20.8663 23.8421C20.3271 23.3029 19.5958 23 18.8333 23C18.0708 23 17.3396 23.3029 16.8004 23.8421C16.2612 24.3812 15.9583 25.1125 15.9583 25.875H7.33333C7.07917 25.875 6.83541 25.976 6.65569 26.1557C6.47597 26.3354 6.375 26.5792 6.375 26.8333C6.375 27.0875 6.47597 27.3313 6.65569 27.511C6.83541 27.6907 7.07917 27.7917 7.33333 27.7917H15.9583V37.0013L13.1983 36.0429C12.8092 35.9136 12.3962 35.8723 11.9892 35.9219C11.5822 35.9716 11.1912 36.1111 10.8446 36.3302C10.4981 36.5493 10.2044 36.8427 9.98503 37.1891C9.76561 37.5355 9.62584 37.9263 9.57583 38.3333H2.54167V7.66667H27.4583V30.8392C27.0729 30.6965 26.6605 30.6413 26.251 30.6778C25.8416 30.7143 25.4454 30.8414 25.0913 31.05Z" fill="#E5F6F4"/>
<path d="M12.125 11.5V16.2917C12.125 16.8 11.9231 17.2875 11.5636 17.647C11.2042 18.0064 10.7167 18.2084 10.2083 18.2084C9.7 18.2084 9.21249 18.0064 8.85305 17.647C8.4936 17.2875 8.29167 16.8 8.29167 16.2917V11.5C8.29167 11.2459 8.1907 11.0021 8.01098 10.8224C7.83126 10.6427 7.5875 10.5417 7.33333 10.5417C7.07917 10.5417 6.83541 10.6427 6.65569 10.8224C6.47597 11.0021 6.375 11.2459 6.375 11.5V16.2917C6.375 17.3084 6.77887 18.2834 7.49776 19.0023C8.21665 19.7212 9.19167 20.125 10.2083 20.125C11.225 20.125 12.2 19.7212 12.9189 19.0023C13.6378 18.2834 14.0417 17.3084 14.0417 16.2917V11.5C14.0417 11.2459 13.9407 11.0021 13.761 10.8224C13.5813 10.6427 13.3375 10.5417 13.0833 10.5417C12.8292 10.5417 12.5854 10.6427 12.4057 10.8224C12.226 11.0021 12.125 11.2459 12.125 11.5Z" fill="#E5F6F4"/>
<path d="M21.8997 10.9248L19.7913 13.7328L17.683 10.9248C17.5305 10.7215 17.3035 10.5871 17.0519 10.5511C16.8003 10.5152 16.5447 10.5807 16.3413 10.7332C16.138 10.8857 16.0036 11.1127 15.9676 11.3643C15.9317 11.6159 15.9972 11.8715 16.1497 12.0748L18.5934 15.3332L16.1497 18.5915C15.9972 18.7948 15.9317 19.0504 15.9676 19.302C16.0036 19.5536 16.138 19.7807 16.3413 19.9332C16.5447 20.0857 16.8003 20.1512 17.0519 20.1152C17.3035 20.0793 17.5305 19.9448 17.683 19.7415L19.7913 16.9336L21.8997 19.7415C22.0522 19.9448 22.2792 20.0793 22.5308 20.1152C22.7824 20.1512 23.038 20.0857 23.2413 19.9332C23.4447 19.7807 23.5791 19.5536 23.615 19.302C23.651 19.0504 23.5855 18.7948 23.433 18.5915L20.9893 15.3332L23.433 12.0748C23.5855 11.8715 23.651 11.6159 23.615 11.3643C23.5791 11.1127 23.4447 10.8857 23.2413 10.7332C23.038 10.5807 22.7824 10.5152 22.5308 10.5511C22.2792 10.5871 22.0522 10.7215 21.8997 10.9248Z" fill="#E5F6F4"/>
<path d="M13.0833 22.0417H7.33333C7.07917 22.0417 6.83541 22.1427 6.65569 22.3224C6.47597 22.5021 6.375 22.7459 6.375 23C6.375 23.2542 6.47597 23.4979 6.65569 23.6777C6.83541 23.8574 7.07917 23.9584 7.33333 23.9584H13.0833C13.3375 23.9584 13.5813 23.8574 13.761 23.6777C13.9407 23.4979 14.0417 23.2542 14.0417 23C14.0417 22.7459 13.9407 22.5021 13.761 22.3224C13.5813 22.1427 13.3375 22.0417 13.0833 22.0417Z" fill="#E5F6F4"/>
<path d="M7.33333 31.625H11.1667C11.4208 31.625 11.6646 31.524 11.8443 31.3443C12.024 31.1646 12.125 30.9208 12.125 30.6666C12.125 30.4125 12.024 30.1687 11.8443 29.989C11.6646 29.8093 11.4208 29.7083 11.1667 29.7083H7.33333C7.07917 29.7083 6.83541 29.8093 6.65569 29.989C6.47597 30.1687 6.375 30.4125 6.375 30.6666C6.375 30.9208 6.47597 31.1646 6.65569 31.3443C6.83541 31.524 7.07917 31.625 7.33333 31.625Z" fill="#E5F6F4"/>
</svg>
