<svg width="30" height="30" viewBox="0 0 30 30" fill="none" xmlns="http://www.w3.org/2000/svg">
<g clip-path="url(#clip0_3015_9770)">
<path d="M20.9662 7.92893L15 13.8951L9.03377 7.92893C8.72867 7.62383 8.23402 7.62383 7.92892 7.92893C7.62381 8.23404 7.62381 8.72868 7.92892 9.03379L13.8951 15L7.92892 20.9662C7.62381 21.2713 7.62381 21.766 7.92892 22.0711C8.23402 22.3762 8.72867 22.3762 9.03377 22.0711L15 16.1049L20.9662 22.0711C21.2713 22.3762 21.7659 22.3762 22.0711 22.0711C22.3762 21.766 22.3762 21.2713 22.0711 20.9662L16.1048 15L22.0711 9.03379C22.3762 8.72868 22.3762 8.23404 22.0711 7.92893C21.7659 7.62383 21.2713 7.62383 20.9662 7.92893Z" fill="white"/>
</g>
<defs>
<clipPath id="clip0_3015_9770">
<rect width="20" height="20" fill="white" transform="translate(0.857849 15) rotate(-45)"/>
</clipPath>
</defs>
</svg>
