<svg width="40" height="40" viewBox="0 0 40 40" fill="none" xmlns="http://www.w3.org/2000/svg">
<path d="M20 -6.10352e-05C16.0444 -6.10352e-05 12.1776 1.17292 8.8886 3.37055C5.59962 5.56818 3.03617 8.69175 1.52242 12.3463C0.00866564 16.0008 -0.387401 20.0221 0.384303 23.9017C1.15601 27.7814 3.06082 31.345 5.85787 34.1421C8.65492 36.9391 12.2186 38.8439 16.0982 39.6156C19.9778 40.3874 23.9992 39.9913 27.6537 38.4775C31.3082 36.9638 34.4318 34.4003 36.6294 31.1113C38.827 27.8224 40 23.9556 40 19.9999C40 14.6956 37.8929 9.60853 34.1421 5.8578C30.3914 2.10708 25.3043 -6.10352e-05 20 -6.10352e-05V-6.10352e-05ZM25.0684 18.1052L24.7369 20.892C24.7225 21.0214 24.6608 21.1408 24.5636 21.2273C24.4664 21.3138 24.3406 21.3613 24.2105 21.3605H21.3158V29.6236C21.3165 29.7223 21.2782 29.8172 21.2091 29.8877C21.1401 29.9582 21.046 29.9986 20.9474 29.9999H18C17.9509 29.9993 17.9025 29.9889 17.8574 29.9695C17.8123 29.9501 17.7715 29.922 17.7373 29.8868C17.7031 29.8516 17.6761 29.81 17.658 29.7644C17.6399 29.7188 17.6309 29.6701 17.6316 29.621L17.6474 21.3605H15.4553C15.3157 21.3605 15.1818 21.305 15.0831 21.2063C14.9844 21.1076 14.929 20.9737 14.929 20.8342V18.0499C14.929 17.9104 14.9844 17.7765 15.0831 17.6778C15.1818 17.5791 15.3157 17.5236 15.4553 17.5236H17.6316V14.8236C17.6316 11.6999 19.4921 9.99994 22.2105 9.99994H24.4395C24.5791 9.99994 24.7129 10.0554 24.8116 10.1541C24.9103 10.2528 24.9658 10.3867 24.9658 10.5263V12.871C24.9658 13.0106 24.9103 13.1445 24.8116 13.2432C24.7129 13.3419 24.5791 13.3973 24.4395 13.3973H23.0737C21.5947 13.421 21.3158 14.1289 21.3158 15.1868V17.5157H24.5579C24.6313 17.5174 24.7036 17.5344 24.7701 17.5657C24.8365 17.597 24.8957 17.6418 24.9438 17.6973C24.9919 17.7529 25.0278 17.8178 25.0493 17.8881C25.0707 17.9583 25.0773 18.0323 25.0684 18.1052Z" fill="#008576"/>
</svg>
