<svg width="40" height="40" viewBox="0 0 40 40" fill="none" xmlns="http://www.w3.org/2000/svg">
<path d="M20.0004 23.1608C21.7459 23.1608 23.1609 21.7458 23.1609 20.0003C23.1609 18.2548 21.7459 16.8398 20.0004 16.8398C18.2549 16.8398 16.8398 18.2548 16.8398 20.0003C16.8398 21.7458 18.2549 23.1608 20.0004 23.1608Z" fill="#008576"/>
<path d="M24.0413 12.0126H15.9571C14.9102 12.0126 13.9062 12.4285 13.1659 13.1688C12.4256 13.9091 12.0098 14.9131 12.0098 15.96V24.0416C12.0098 25.0885 12.4256 26.0925 13.1659 26.8328C13.9062 27.5731 14.9102 27.989 15.9571 27.989H24.0413C25.0883 27.989 26.0923 27.5731 26.8326 26.8328C27.5728 26.0925 27.9887 25.0885 27.9887 24.0416V15.9574C27.988 14.9109 27.5718 13.9076 26.8316 13.1679C26.0914 12.4282 25.0878 12.0126 24.0413 12.0126ZM19.9992 25.1732C18.9759 25.1737 17.9753 24.8707 17.1242 24.3025C16.273 23.7343 15.6095 22.9265 15.2175 21.9812C14.8255 21.0359 14.7227 19.9955 14.922 18.9918C15.1213 17.988 15.6139 17.0659 16.3373 16.3421C17.0608 15.6182 17.9826 15.1252 18.9863 14.9254C19.99 14.7256 21.0304 14.8279 21.9759 15.2194C22.9214 15.6109 23.7296 16.274 24.2982 17.1249C24.8668 17.9757 25.1703 18.9761 25.1703 19.9995C25.1689 21.3707 24.6237 22.6855 23.6543 23.6554C22.685 24.6252 21.3705 25.1711 19.9992 25.1732ZM25.2019 16.1047C24.9487 16.1053 24.7011 16.0306 24.4903 15.8903C24.2796 15.75 24.1153 15.5502 24.0182 15.3164C23.921 15.0826 23.8955 14.8253 23.9447 14.5769C23.994 14.3286 24.1159 14.1005 24.2949 13.9214C24.4739 13.7424 24.702 13.6206 24.9504 13.5713C25.1987 13.522 25.4561 13.5476 25.6899 13.6447C25.9237 13.7418 26.1234 13.9062 26.2637 14.1169C26.4041 14.3276 26.4787 14.5752 26.4782 14.8284C26.4775 15.1667 26.3428 15.4909 26.1036 15.7301C25.8644 15.9694 25.5402 16.104 25.2019 16.1047Z" fill="#008576"/>
<path d="M20 -6.10352e-05C16.0444 -6.10352e-05 12.1776 1.17292 8.8886 3.37055C5.59962 5.56818 3.03617 8.69175 1.52242 12.3463C0.00866564 16.0008 -0.387401 20.0221 0.384303 23.9017C1.15601 27.7814 3.06082 31.345 5.85787 34.1421C8.65492 36.9391 12.2186 38.8439 16.0982 39.6156C19.9778 40.3874 23.9992 39.9913 27.6537 38.4775C31.3082 36.9638 34.4318 34.4003 36.6294 31.1113C38.827 27.8224 40 23.9556 40 19.9999C40 14.6956 37.8929 9.60853 34.1421 5.8578C30.3914 2.10708 25.3043 -6.10352e-05 20 -6.10352e-05V-6.10352e-05ZM30 24.042C29.9986 25.6217 29.3705 27.1364 28.2534 28.2534C27.1364 29.3704 25.6218 29.9985 24.0421 29.9999H15.9579C14.3784 29.9979 12.8642 29.3695 11.7473 28.2526C10.6305 27.1357 10.0021 25.6215 10 24.042V15.9578C10.0021 14.3783 10.6305 12.8641 11.7473 11.7473C12.8642 10.6304 14.3784 10.002 15.9579 9.99994H24.0421C25.6216 10.002 27.1358 10.6304 28.2527 11.7473C29.3695 12.8641 29.9979 14.3783 30 15.9578V24.042Z" fill="#008576"/>
</svg>
