<svg width="40" height="40" viewBox="0 0 40 40" fill="none" xmlns="http://www.w3.org/2000/svg">
<path d="M20 -6.10352e-05C16.0444 -6.10352e-05 12.1776 1.17292 8.8886 3.37055C5.59962 5.56818 3.03617 8.69175 1.52242 12.3463C0.00866564 16.0008 -0.387401 20.0221 0.384303 23.9017C1.15601 27.7814 3.06082 31.345 5.85787 34.1421C8.65492 36.9391 12.2186 38.8439 16.0982 39.6156C19.9778 40.3874 23.9992 39.9913 27.6537 38.4775C31.3082 36.9638 34.4318 34.4003 36.6294 31.1113C38.827 27.8224 40 23.9556 40 19.9999C40 14.6956 37.8929 9.60853 34.1421 5.8578C30.3914 2.10708 25.3043 -6.10352e-05 20 -6.10352e-05V-6.10352e-05ZM14.9105 29.3236C14.9105 29.503 14.8393 29.675 14.7124 29.8019C14.5856 29.9287 14.4136 29.9999 14.2342 29.9999H11.3605C11.2716 30.0003 11.1835 29.983 11.1013 29.9492C11.0191 29.9153 10.9444 29.8655 10.8815 29.8026C10.8187 29.7398 10.7689 29.6651 10.735 29.5829C10.7011 29.5006 10.6839 29.4125 10.6842 29.3236V17.2736C10.6842 17.0943 10.7555 16.9222 10.8823 16.7954C11.0091 16.6686 11.1812 16.5973 11.3605 16.5973H14.2342C14.4136 16.5973 14.5856 16.6686 14.7124 16.7954C14.8393 16.9222 14.9105 17.0943 14.9105 17.2736V29.3236ZM12.8053 15.4631C12.2647 15.4652 11.7356 15.3068 11.2851 15.0081C10.8346 14.7093 10.4828 14.2836 10.2744 13.7848C10.0659 13.286 10.0102 12.7366 10.1142 12.2061C10.2182 11.6756 10.4772 11.1879 10.8586 10.8047C11.2399 10.4215 11.7264 10.1601 12.2563 10.0535C12.7863 9.94699 13.336 10.0001 13.8358 10.2061C14.3356 10.4122 14.763 10.7618 15.064 11.2109C15.3649 11.66 15.5258 12.1883 15.5263 12.7289C15.5267 13.0876 15.4564 13.4429 15.3194 13.7744C15.1824 14.106 14.9815 14.4073 14.7281 14.6612C14.4747 14.9151 14.1738 15.1166 13.8425 15.2542C13.5112 15.3918 13.1561 15.4628 12.7974 15.4631H12.8053ZM29.9421 29.3789C29.9421 29.5436 29.8767 29.7016 29.7602 29.818C29.6437 29.9345 29.4858 29.9999 29.3211 29.9999H26.229C26.0642 29.9999 25.9063 29.9345 25.7898 29.818C25.6733 29.7016 25.6079 29.5436 25.6079 29.3789V23.7263C25.6079 22.8815 25.8526 20.042 23.4026 20.042C21.5026 20.042 21.1158 21.9947 21.0342 22.871V29.392C21.0308 29.5536 20.9646 29.7074 20.8496 29.8209C20.7346 29.9344 20.58 29.9986 20.4184 29.9999H17.4342C17.3526 30.0003 17.2716 29.9845 17.1961 29.9534C17.1206 29.9223 17.052 29.8766 16.9943 29.8188C16.9366 29.7611 16.8908 29.6925 16.8597 29.617C16.8286 29.5415 16.8128 29.4605 16.8132 29.3789V17.221C16.8128 17.1392 16.8286 17.0582 16.8597 16.9825C16.8907 16.9069 16.9364 16.8381 16.9941 16.7801C17.0518 16.7222 17.1204 16.6762 17.1959 16.6448C17.2715 16.6135 17.3524 16.5973 17.4342 16.5973H20.4184C20.5012 16.5959 20.5834 16.611 20.6603 16.6417C20.7372 16.6724 20.8072 16.7182 20.8663 16.7762C20.9253 16.8343 20.9722 16.9035 21.0042 16.9799C21.0362 17.0562 21.0527 17.1382 21.0526 17.221V18.2736C21.7579 17.221 22.8053 16.3973 25.0342 16.3973C29.9763 16.3973 29.9474 21.0131 29.9474 23.5473L29.9421 29.3789Z" fill="#008576"/>
</svg>
