<svg width="40" height="40" viewBox="0 0 40 40" fill="none" xmlns="http://www.w3.org/2000/svg">
<path d="M18.1318 17.1842C18.1318 17.7499 18.3949 17.9736 20.0002 18.3578L20.3212 18.4342C22.0791 18.8526 24.737 19.4868 24.737 22.4157C24.7682 23.0777 24.5923 23.733 24.2339 24.2904C23.8754 24.8479 23.3523 25.2798 22.737 25.5263C21.8629 25.8526 20.9326 26.0019 20.0002 25.9657H19.8765C17.116 25.9657 15.3739 23.8184 15.3002 23.7263C15.1287 23.4515 15.0646 23.1232 15.12 22.8041C15.1755 22.4851 15.3467 22.1976 15.6009 21.9969C15.855 21.7962 16.1743 21.6963 16.4976 21.7162C16.8208 21.7362 17.1253 21.8747 17.3528 22.1052C17.3528 22.1052 18.4055 23.3078 19.8765 23.3552H20.0002C21.6739 23.3842 22.0634 22.8684 22.1055 22.4263C22.1686 21.8999 21.7291 21.5105 20.0002 21.071L19.7134 20.9999C18.037 20.6026 15.5028 20.0026 15.5028 17.3026C15.5028 16.4789 15.8318 13.8236 19.9949 13.7236H20.2423C23.0186 13.7236 24.6581 15.9078 24.716 16.0026C24.8894 16.283 24.9513 16.6182 24.8893 16.9421C24.8273 17.2659 24.6461 17.5546 24.3814 17.7512C24.1167 17.9477 23.7878 18.0377 23.4599 18.0034C23.132 17.969 22.829 17.8129 22.6107 17.5657C21.9859 16.8984 21.1487 16.4687 20.2423 16.3499C20.1581 16.3499 20.0765 16.3499 19.9949 16.3499C19.0265 16.2947 18.1318 16.6631 18.1318 17.1842Z" fill="#008576"/>
<path d="M20 -6.10352e-05C16.0444 -6.10352e-05 12.1776 1.17292 8.8886 3.37055C5.59962 5.56818 3.03617 8.69175 1.52242 12.3463C0.00866564 16.0008 -0.387401 20.0221 0.384303 23.9017C1.15601 27.7814 3.06082 31.345 5.85787 34.1421C8.65492 36.9391 12.2186 38.8439 16.0982 39.6156C19.9778 40.3874 23.9992 39.9913 27.6537 38.4775C31.3082 36.9638 34.4318 34.4003 36.6294 31.1113C38.827 27.8224 40 23.9556 40 19.9999C40 14.6956 37.8929 9.60853 34.1421 5.8578C30.3914 2.10708 25.3043 -6.10352e-05 20 -6.10352e-05V-6.10352e-05ZM30 24.2473C29.9412 25.2827 29.5087 26.2615 28.7827 27.002C28.0567 27.7425 27.0866 28.1943 26.0526 28.2736C25.5625 28.3086 25.0701 28.2578 24.5974 28.1236C24.076 27.984 23.524 28.0107 23.0184 28.1999C21.6982 28.6858 20.2801 28.8455 18.8848 28.6654C17.4895 28.4853 16.1585 27.9708 15.0049 27.1655C13.8513 26.3603 12.9094 25.2882 12.2593 24.0406C11.6091 22.793 11.2701 21.4068 11.2711 19.9999C11.2796 19.4582 11.1165 18.9276 10.8053 18.4841C10.2855 17.7666 10.002 16.9049 9.99433 16.0189C9.98661 15.1328 10.255 14.2664 10.7622 13.5399C11.2694 12.8133 11.9903 12.2628 12.8247 11.9646C13.6591 11.6665 14.5657 11.6356 15.4184 11.8763C15.9396 12.0167 16.4916 11.9909 16.9974 11.8026C18.3166 11.3199 19.7327 11.1627 21.1256 11.3442C22.5186 11.5257 23.8471 12.0406 24.9986 12.8452C26.15 13.6498 27.0904 14.7203 27.7398 15.9658C28.3892 17.2114 28.7285 18.5952 28.729 19.9999C28.7205 20.5417 28.8835 21.0722 29.1947 21.5157C29.7693 22.3066 30.0537 23.2713 30 24.2473Z" fill="#008576"/>
</svg>
