<svg width="40" height="40" viewBox="0 0 40 40" fill="none" xmlns="http://www.w3.org/2000/svg">
<g clip-path="url(#clip0_3015_10018)">
<path d="M18.1316 17.1842C18.1316 17.75 18.3947 17.9737 20 18.3579L20.321 18.4342C22.0789 18.8526 24.7368 19.4869 24.7368 22.4158C24.768 23.0778 24.5921 23.7331 24.2337 24.2905C23.8752 24.8479 23.3521 25.2799 22.7368 25.5263C21.8627 25.8526 20.9324 26.002 20 25.9658H19.8763C17.1158 25.9658 15.3737 23.8184 15.3 23.7263C15.1285 23.4516 15.0644 23.1233 15.1198 22.8042C15.1753 22.4851 15.3465 22.1977 15.6007 21.997C15.8548 21.7963 16.1741 21.6963 16.4974 21.7163C16.8206 21.7363 17.1251 21.8748 17.3526 22.1053C17.3526 22.1053 18.4053 23.3079 19.8763 23.3553H20C21.6737 23.3842 22.0632 22.8684 22.1053 22.4263C22.1684 21.9 21.7289 21.5105 20 21.0711L19.7132 21C18.0368 20.6026 15.5026 20.0026 15.5026 17.3026C15.5026 16.479 15.8316 13.8237 19.9947 13.7237H20.2421C23.0184 13.7237 24.6579 15.9079 24.7158 16.0026C24.8892 16.283 24.9511 16.6183 24.8891 16.9421C24.8271 17.2659 24.6459 17.5547 24.3812 17.7512C24.1165 17.9478 23.7876 18.0378 23.4597 18.0034C23.1318 17.9691 22.8288 17.8129 22.6105 17.5658C21.9857 16.8985 21.1485 16.4688 20.2421 16.35C20.1579 16.35 20.0763 16.35 19.9947 16.35C19.0263 16.2947 18.1316 16.6632 18.1316 17.1842Z" fill="#00A693"/>
<path d="M20 0C16.0444 0 12.1776 1.17298 8.88857 3.37061C5.59959 5.56824 3.03614 8.69181 1.52239 12.3463C0.00863512 16.0009 -0.387432 20.0222 0.384273 23.9018C1.15598 27.7814 3.06079 31.3451 5.85784 34.1421C8.65489 36.9392 12.2186 38.844 16.0982 39.6157C19.9778 40.3874 23.9991 39.9913 27.6536 38.4776C31.3082 36.9638 34.4317 34.4004 36.6294 31.1114C38.827 27.8224 40 23.9556 40 20C40 14.6957 37.8928 9.60859 34.1421 5.85786C30.3914 2.10714 25.3043 0 20 0V0ZM30 24.2474C29.9412 25.2827 29.5086 26.2615 28.7826 27.002C28.0567 27.7426 27.0866 28.1944 26.0526 28.2737C25.5625 28.3087 25.07 28.2579 24.5973 28.1237C24.0759 27.9841 23.5239 28.0108 23.0184 28.2C21.6981 28.6859 20.28 28.8456 18.8848 28.6655C17.4895 28.4854 16.1584 27.9708 15.0049 27.1656C13.8513 26.3603 12.9093 25.2883 12.2592 24.0407C11.6091 22.7931 11.2701 21.4068 11.271 20C11.2795 19.4583 11.1165 18.9277 10.8052 18.4842C10.2854 17.7666 10.002 16.905 9.9943 16.0189C9.98658 15.1329 10.255 14.2664 10.7622 13.5399C11.2694 12.8134 11.9903 12.2628 12.8247 11.9647C13.6591 11.6666 14.5656 11.6357 15.4184 11.8763C15.9396 12.0167 16.4915 11.991 16.9973 11.8026C18.3165 11.32 19.7327 11.1628 21.1256 11.3443C22.5185 11.5258 23.8471 12.0407 24.9985 12.8453C26.15 13.6498 27.0903 14.7203 27.7398 15.9659C28.3892 17.2114 28.7285 18.5953 28.7289 20C28.7204 20.5417 28.8835 21.0723 29.1947 21.5158C29.7693 22.3066 30.0537 23.2713 30 24.2474Z" fill="#00A693"/>
</g>
<defs>
<clipPath id="clip0_3015_10018">
<rect width="40" height="40" fill="white"/>
</clipPath>
</defs>
</svg>
