<svg width="40" height="40" viewBox="0 0 40 40" fill="none" xmlns="http://www.w3.org/2000/svg">
<path d="M20 -6.10352e-05C16.0444 -6.10352e-05 12.1776 1.17292 8.8886 3.37055C5.59962 5.56818 3.03617 8.69175 1.52242 12.3463C0.00866564 16.0008 -0.387401 20.0221 0.384303 23.9017C1.15601 27.7814 3.06082 31.345 5.85787 34.1421C8.65492 36.9391 12.2186 38.8439 16.0982 39.6156C19.9778 40.3874 23.9992 39.9913 27.6537 38.4775C31.3082 36.9638 34.4318 34.4003 36.6294 31.1113C38.827 27.8224 40 23.9556 40 19.9999C40 14.6956 37.8929 9.60853 34.1421 5.8578C30.3914 2.10708 25.3043 -6.10352e-05 20 -6.10352e-05V-6.10352e-05ZM29.9605 13.9473C29.4878 14.6574 28.9102 15.2918 28.2474 15.8289C28.1638 15.8985 28.0968 15.9859 28.0513 16.0847C28.0058 16.1835 27.9829 16.2912 27.9842 16.3999V16.4657C27.9765 17.8919 27.7145 19.3052 27.2105 20.6394C26.6912 22.0397 25.9197 23.333 24.9342 24.4552C23.6099 25.9628 21.9062 27.0886 20 27.7157C18.7475 28.1223 17.4379 28.3257 16.1211 28.3184C14.0319 28.3181 11.9801 27.7652 10.1737 26.7157C10.109 26.6789 10.058 26.622 10.0286 26.5536C9.99911 26.4852 9.99279 26.4091 10.0105 26.3368C10.0288 26.2656 10.0703 26.2026 10.1284 26.1578C10.1866 26.1129 10.2581 26.0889 10.3316 26.0894H10.8316C12.419 26.0922 13.9712 25.6212 15.2895 24.7368C14.5042 24.6086 13.7694 24.2664 13.1659 23.7478C12.5624 23.2292 12.1134 22.5544 11.8684 21.7973C11.8559 21.7594 11.8536 21.7188 11.8618 21.6798C11.8701 21.6407 11.8885 21.6045 11.9152 21.5748C11.9419 21.5452 11.976 21.5231 12.014 21.5109C12.052 21.4986 12.0926 21.4967 12.1316 21.5052C12.3711 21.5503 12.6142 21.5732 12.8579 21.5736H12.95C12.1908 21.2252 11.5489 20.6642 11.1019 19.9585C10.6549 19.2527 10.4221 18.4326 10.4316 17.5973C10.4319 17.5582 10.4422 17.5199 10.4617 17.486C10.4812 17.4521 10.5092 17.4239 10.5428 17.404C10.5765 17.3841 10.6147 17.3733 10.6538 17.3726C10.6928 17.3719 10.7314 17.3813 10.7658 17.3999C11.0745 17.5723 11.4058 17.7007 11.75 17.7815C11.0702 17.1085 10.633 16.229 10.5068 15.2808C10.3806 14.3327 10.5726 13.3694 11.0526 12.542C11.0711 12.5104 11.0969 12.4838 11.1279 12.4643C11.1589 12.4448 11.1941 12.4332 11.2306 12.4304C11.2671 12.4275 11.3037 12.4335 11.3373 12.448C11.371 12.4624 11.4006 12.4847 11.4237 12.5131C12.3751 13.6887 13.5525 14.6616 14.8864 15.3744C16.2202 16.0872 17.6834 16.5254 19.1895 16.6631H19.2105C19.2327 16.6625 19.2544 16.6573 19.2745 16.648C19.2946 16.6387 19.3126 16.6253 19.3274 16.6089C19.3421 16.5924 19.3534 16.573 19.3604 16.552C19.3675 16.5311 19.3702 16.5089 19.3684 16.4868C19.3098 15.9587 19.3437 15.4244 19.4684 14.9078C19.6382 14.2058 19.9868 13.5596 20.4802 13.032C20.9736 12.5045 21.5951 12.1136 22.2842 11.8973C22.7264 11.7592 23.1868 11.6882 23.65 11.6868C24.7003 11.6856 25.7149 12.0684 26.5026 12.7631C26.6047 12.8544 26.7368 12.905 26.8737 12.9052C26.9181 12.9043 26.9623 12.8981 27.0053 12.8868C27.745 12.6995 28.4539 12.4071 29.1105 12.0184C29.1498 11.9941 29.1956 11.9827 29.2416 11.9855C29.2876 11.9883 29.3317 12.0053 29.3677 12.0341C29.4037 12.0629 29.4299 12.1021 29.4428 12.1464C29.4556 12.1907 29.4545 12.2379 29.4395 12.2815C29.2205 12.9704 28.8302 13.5925 28.3053 14.0894C28.7785 13.9779 29.2402 13.8219 29.6842 13.6236C29.7278 13.6073 29.7753 13.6047 29.8203 13.6164C29.8653 13.628 29.9057 13.6532 29.9359 13.6886C29.9661 13.7239 29.9847 13.7677 29.9891 13.814C29.9935 13.8603 29.9835 13.9069 29.9605 13.9473Z" fill="#008576"/>
</svg>
