<svg width="40" height="40" viewBox="0 0 40 40" fill="none" xmlns="http://www.w3.org/2000/svg">
<path d="M25.526 14.4732L25.4865 14.4337C24.1784 13.1326 22.4498 12.3397 20.6103 12.197C18.7708 12.0544 16.9407 12.5713 15.4476 13.6552C13.9546 14.7391 12.8962 16.3192 12.4622 18.1124C12.0281 19.9056 12.2466 21.7948 13.0786 23.4416L13.4207 24.1153L12.7812 27.2153V27.2547L15.8523 26.5258L16.5523 26.8732C18.0092 27.5963 19.6563 27.8441 21.2615 27.5816C22.8666 27.3191 24.349 26.5596 25.4997 25.41C26.9443 23.9583 27.7576 21.995 27.7625 19.947C27.7674 17.8989 26.9637 15.9318 25.526 14.4732ZM25.2154 23.1574C24.8391 23.7495 24.2418 24.4732 23.497 24.6547C22.1812 24.9732 20.1786 24.6547 17.6707 22.3363L17.6391 22.3074C15.4576 20.2705 14.8786 18.5732 15.0076 17.2284C15.0839 16.4653 15.7207 15.7758 16.2576 15.3232C16.3427 15.2506 16.4437 15.1992 16.5524 15.1729C16.6611 15.1466 16.7745 15.1463 16.8833 15.1719C16.9922 15.1975 17.0935 15.2483 17.1791 15.3203C17.2647 15.3923 17.3321 15.4834 17.376 15.5863L18.1839 17.4284C18.2366 17.546 18.2564 17.6757 18.2411 17.8036C18.2258 17.9315 18.176 18.0529 18.097 18.1547L17.6865 18.681C17.6012 18.7903 17.5503 18.9225 17.5405 19.0608C17.5307 19.1991 17.5622 19.3371 17.6312 19.4574C18.0214 20.0312 18.488 20.5491 19.0181 20.9968C19.5872 21.5476 20.2346 22.0114 20.9391 22.3732C21.0675 22.4253 21.2084 22.4378 21.3439 22.4092C21.4795 22.3806 21.6033 22.3121 21.6997 22.2126L22.1707 21.7363C22.2586 21.6355 22.373 21.5614 22.501 21.5223C22.6289 21.4833 22.7652 21.4808 22.8944 21.5153L24.8154 22.0679C24.9222 22.0991 25.0203 22.1548 25.1019 22.2304C25.1835 22.306 25.2465 22.3996 25.2858 22.5037C25.3251 22.6078 25.3396 22.7196 25.3284 22.8303C25.3171 22.941 25.2802 23.0476 25.2207 23.1416L25.2154 23.1574Z" fill="#008576"/>
<path d="M20 -6.10352e-05C16.0444 -6.10352e-05 12.1776 1.17292 8.8886 3.37055C5.59962 5.56818 3.03617 8.69175 1.52242 12.3463C0.00866564 16.0008 -0.387401 20.0221 0.384303 23.9017C1.15601 27.7814 3.06082 31.345 5.85787 34.1421C8.65492 36.9391 12.2186 38.8439 16.0982 39.6156C19.9778 40.3874 23.9992 39.9913 27.6537 38.4775C31.3082 36.9638 34.4318 34.4003 36.6294 31.1113C38.827 27.8224 40 23.9556 40 19.9999C40 14.6956 37.8929 9.60853 34.1421 5.8578C30.3914 2.10708 25.3043 -6.10352e-05 20 -6.10352e-05V-6.10352e-05ZM29.9132 20.2341C29.8591 21.8952 29.3888 23.516 28.5454 24.9479C27.702 26.3799 26.5124 27.5771 25.0859 28.4297C23.6594 29.2823 22.0416 29.763 20.381 29.8277C18.7204 29.8924 17.0701 29.539 15.5816 28.7999L10.5816 29.9894C10.506 30.0068 10.4269 30.001 10.3547 29.9728C10.2824 29.9447 10.2203 29.8954 10.1763 29.8315C10.1463 29.7888 10.1254 29.7403 10.115 29.6892C10.1046 29.638 10.1049 29.5852 10.1158 29.5342L11.1684 24.4236C10.4804 23.0754 10.1099 21.5876 10.0854 20.0742C10.0609 18.5607 10.3831 17.0618 11.0272 15.692C11.6713 14.3222 12.6203 13.118 13.8015 12.1715C14.9827 11.2251 16.3648 10.5614 17.8421 10.2314C19.3193 9.90135 20.8525 9.91371 22.3242 10.2675C23.7959 10.6213 25.1671 11.3072 26.3329 12.2726C27.4987 13.238 28.4282 14.4574 29.0501 15.8373C29.672 17.2173 29.9699 18.7213 29.9211 20.2341H29.9132Z" fill="#008576"/>
</svg>
